<?xml version="1.0" standalone="no"?>
<!DOCTYPE svg PUBLIC "-//W3C//DTD SVG 20010904//EN"
 "http://www.w3.org/TR/2001/REC-SVG-20010904/DTD/svg10.dtd">
<svg version="1.0" xmlns="http://www.w3.org/2000/svg"
 width="1264.000000pt" height="1264.000000pt" viewBox="0 0 1264.000000 1264.000000"
 preserveAspectRatio="xMidYMid meet">
<metadata>
Created by potrace 1.11, written by Peter Selinger 2001-2013
</metadata>
<g transform="translate(0.000000,1264.000000) scale(0.100000,-0.100000)"
fill="#000000" stroke="none">
<path d="M6018 9995 c-2 -1 -46 -6 -98 -9 -52 -4 -113 -9 -135 -11 -22 -3 -65
-7 -95 -10 -30 -3 -66 -7 -80 -9 -14 -2 -47 -7 -75 -11 -67 -9 -113 -16 -139
-21 -11 -2 -37 -7 -56 -10 -19 -3 -46 -8 -60 -11 -14 -3 -37 -6 -51 -8 -14 -1
-31 -5 -38 -9 -6 -4 -26 -9 -44 -12 -32 -4 -58 -9 -99 -20 -13 -3 -41 -10 -63
-14 -22 -5 -94 -25 -160 -44 -66 -20 -130 -38 -142 -41 -12 -3 -35 -10 -50
-16 -16 -6 -35 -12 -43 -14 -19 -4 -188 -63 -215 -75 -11 -5 -66 -27 -122 -49
-56 -22 -124 -50 -150 -62 -119 -52 -139 -62 -153 -70 -8 -5 -22 -12 -30 -15
-28 -11 -214 -106 -270 -137 -30 -17 -76 -43 -101 -57 -84 -45 -274 -163 -277
-172 -2 -4 -8 -8 -14 -8 -11 0 -101 -61 -106 -72 -2 -5 -8 -8 -13 -8 -8 0
-146 -96 -184 -128 -5 -4 -37 -28 -69 -52 -63 -46 -90 -67 -111 -87 -8 -7 -18
-13 -23 -13 -6 0 -12 -4 -14 -9 -3 -8 -30 -32 -143 -126 -173 -144 -513 -479
-638 -628 -19 -23 -43 -52 -54 -63 -10 -12 -36 -43 -58 -69 -22 -26 -45 -53
-51 -59 -6 -7 -68 -86 -138 -176 -70 -91 -134 -173 -142 -183 -8 -9 -14 -19
-14 -22 0 -2 -35 -54 -78 -114 -205 -291 -390 -605 -577 -986 -98 -200 -135
-278 -141 -300 -1 -5 -23 -57 -49 -115 -103 -232 -230 -588 -326 -915 -37
-127 -124 -464 -136 -525 -2 -14 -9 -45 -14 -70 -6 -25 -13 -56 -15 -70 -2
-14 -9 -47 -15 -75 -14 -69 -37 -193 -55 -309 -3 -21 -7 -48 -10 -60 -2 -11
-6 -32 -8 -46 -3 -14 -8 -52 -11 -85 -3 -33 -8 -71 -10 -85 -2 -14 -7 -47 -10
-75 -3 -27 -7 -61 -9 -75 -2 -14 -6 -61 -10 -105 -4 -44 -9 -96 -11 -115 -2
-19 -7 -70 -10 -112 l-6 -76 58 -12 c32 -7 65 -16 73 -20 8 -4 29 -11 45 -14
17 -3 46 -9 65 -15 179 -47 274 -71 287 -71 8 0 50 35 92 78 84 84 178 171
249 230 25 20 50 42 56 47 6 6 29 24 51 40 22 17 45 35 50 41 33 38 459 322
535 357 8 4 31 17 50 28 49 30 306 160 360 183 25 10 68 28 95 41 115 52 427
161 590 206 22 6 60 17 85 25 25 7 56 15 70 18 14 3 34 7 45 10 102 24 190 43
235 50 19 3 62 10 95 16 83 15 175 29 227 34 24 3 65 8 92 11 53 8 71 9 291
21 306 16 692 2 895 -32 19 -3 51 -7 70 -10 32 -3 93 -11 145 -19 22 -4 66
-12 105 -20 14 -3 36 -7 50 -10 41 -8 113 -23 140 -30 14 -3 36 -8 50 -10 14
-2 84 -20 155 -40 72 -20 137 -38 145 -40 39 -9 342 -117 405 -144 11 -5 70
-30 130 -56 61 -26 129 -58 153 -71 23 -13 47 -24 53 -24 5 0 26 -11 47 -24
20 -12 40 -24 45 -24 15 -3 72 -35 78 -44 3 -5 10 -10 15 -10 10 0 54 -24 119
-63 22 -13 47 -27 55 -31 24 -12 154 -98 168 -112 7 -6 17 -12 22 -12 9 0 310
-224 363 -270 115 -100 159 -141 292 -275 83 -82 170 -174 195 -204 25 -29 53
-63 63 -75 10 -11 30 -35 43 -52 l25 -31 2410 0 2410 0 -6 171 c-8 195 -11
249 -20 361 -3 44 -8 103 -10 130 -4 47 -11 115 -21 195 -2 19 -6 62 -10 95
-3 33 -8 71 -10 85 -9 52 -14 86 -18 115 -5 41 -25 165 -30 190 -2 11 -7 38
-11 60 -4 22 -9 51 -12 65 -2 14 -13 68 -24 120 -10 52 -21 106 -23 120 -3 14
-10 48 -16 75 -7 28 -14 59 -16 70 -3 18 -78 306 -89 345 -2 8 -11 42 -20 75
-22 86 -142 456 -175 545 -97 256 -125 327 -138 348 -8 12 -11 22 -7 22 4 0 3
6 -2 13 -5 6 -20 39 -33 72 -13 33 -29 69 -37 80 -7 11 -13 27 -13 35 0 9 -6
22 -12 28 -7 7 -13 16 -13 20 -1 23 -261 541 -295 587 -4 6 -19 30 -32 55 -61
108 -100 173 -176 293 -45 71 -82 132 -82 137 0 5 -4 10 -8 12 -4 2 -43 55
-87 118 -118 173 -360 490 -399 525 -6 6 -21 23 -34 39 -94 122 -386 427 -565
590 -43 39 -96 87 -117 106 -21 19 -57 51 -80 69 -24 19 -48 40 -54 45 -10 10
-95 78 -121 98 -5 4 -30 24 -55 43 -25 19 -49 39 -55 43 -51 39 -235 169 -295
208 -41 27 -77 51 -80 54 -3 3 -16 11 -30 19 -14 8 -61 37 -105 64 -44 27 -98
59 -120 72 -22 12 -58 32 -80 45 -67 38 -385 196 -465 230 -41 18 -88 38 -105
45 -118 51 -462 175 -525 190 -8 2 -73 20 -145 40 -125 35 -246 64 -292 70
-11 2 -30 6 -42 10 -11 3 -33 8 -48 11 -16 3 -55 10 -88 16 -104 19 -218 36
-285 43 -58 7 -138 16 -175 21 -22 3 -69 7 -105 10 -75 5 -707 14 -712 9z
m584 -469 c131 -10 190 -16 199 -21 4 -3 6 -15 4 -27 -3 -12 -7 -83 -10 -157
-9 -234 -15 -325 -21 -330 -3 -3 -58 -6 -122 -7 -114 -2 -406 -11 -584 -19
-85 -4 -88 -3 -87 18 1 12 -2 123 -6 247 -8 229 -8 267 -6 285 0 6 40 11 88
13 48 2 88 4 90 6 4 4 368 -2 455 -8z m-695 -54 c2 -171 13 -464 16 -470 3 -4
1 -16 -3 -28 -7 -17 -18 -21 -67 -24 -78 -4 -128 -8 -128 -10 0 0 -25 -3 -55
-5 -103 -7 -221 -18 -310 -30 -19 -2 -62 -7 -95 -11 -33 -4 -63 -8 -67 -10 -8
-5 -13 18 -33 151 -9 55 -18 111 -20 125 -3 14 -7 43 -10 65 -5 41 -10 70 -21
117 -5 24 -1 30 23 39 15 6 35 12 43 14 8 2 53 13 100 24 47 11 103 23 125 26
22 3 46 8 54 11 14 5 42 9 111 18 19 3 46 7 60 10 50 9 106 17 170 22 36 3 66
7 67 8 1 1 10 2 20 3 16 1 19 -6 20 -45z m1303 -26 c14 -2 44 -9 68 -14 23 -5
42 -8 42 -5 0 3 7 0 15 -7 8 -7 15 -10 15 -7 0 4 42 -4 90 -18 8 -2 40 -11 70
-18 69 -18 212 -61 265 -80 32 -12 40 -19 38 -38 -5 -72 -8 -91 -15 -95 -5 -3
-6 -9 -3 -14 3 -5 1 -29 -5 -55 -6 -25 -13 -62 -16 -83 -10 -71 19 -66 -294
-48 -36 2 -137 7 -225 11 -87 3 -161 7 -163 9 -6 7 -1 172 13 396 2 19 3 47 4
61 1 26 3 27 39 19 20 -5 48 -11 62 -14z m-2384 -213 c4 -27 8 -50 9 -53 2 -9
18 -124 21 -150 1 -14 3 -25 4 -25 1 0 3 -12 5 -26 4 -33 13 -87 19 -116 4
-17 0 -23 -12 -24 -9 0 -24 -2 -32 -4 -8 -1 -33 -6 -55 -9 -22 -4 -65 -11 -95
-16 -30 -5 -72 -12 -94 -16 -21 -3 -48 -8 -60 -10 -11 -2 -46 -8 -76 -14 -30
-6 -66 -13 -80 -16 -14 -3 -34 -7 -45 -9 -11 -2 -51 -10 -90 -18 -38 -9 -73
-14 -76 -11 -4 2 -9 0 -11 -6 -1 -5 -8 -6 -15 -2 -12 7 -59 163 -69 228 l-5
30 168 81 c166 80 276 128 428 186 22 8 63 24 90 35 28 10 53 18 56 16 4 -2
10 -25 15 -51z m3204 -30 c63 -25 134 -53 158 -64 23 -10 63 -29 90 -40 26
-12 97 -46 157 -77 61 -30 126 -63 146 -73 52 -26 62 -41 48 -73 -11 -23 -17
-26 -44 -22 -18 3 -58 8 -91 12 -66 7 -97 11 -134 18 -39 8 -109 16 -186 21
-38 3 -81 8 -95 10 -13 3 -53 8 -89 11 -36 3 -78 7 -95 9 -16 1 -40 3 -52 4
-13 1 -21 6 -18 14 4 11 11 53 20 112 2 11 10 58 19 104 9 46 16 85 16 87 0 5
15 -1 150 -53z m-1256 -331 c-2 -37 -6 -119 -9 -182 -10 -232 -22 -477 -24
-495 -1 -6 -27 -11 -58 -11 -75 -1 -426 -14 -479 -18 -22 -1 -46 -6 -52 -10
-6 -3 -13 -2 -17 3 -3 6 -11 8 -18 6 -31 -11 -107 -12 -108 -1 0 6 -2 67 -4
136 -6 214 -16 533 -18 573 -1 20 0 38 3 38 12 3 84 7 230 14 85 4 156 8 157
8 1 1 91 3 201 4 l199 2 -3 -67z m531 54 c158 -6 380 -19 438 -25 4 -1 5 -18
3 -38 -10 -66 -16 -107 -23 -133 -3 -14 -7 -34 -8 -45 -3 -27 -15 -97 -20
-115 -2 -8 -7 -33 -10 -55 -3 -23 -8 -52 -10 -65 -3 -14 -8 -38 -10 -55 -22
-121 -37 -202 -41 -217 -4 -13 -15 -15 -57 -13 -79 5 -384 18 -455 18 l-63 1
6 151 c3 82 8 182 10 220 5 91 17 336 17 355 1 20 16 29 42 25 12 -2 93 -6
181 -9z m-3286 -13 c0 -10 4 -34 9 -53 6 -19 18 -61 26 -94 9 -32 18 -62 21
-66 3 -4 -14 -13 -38 -19 -90 -24 -303 -74 -314 -74 -7 0 -13 -3 -13 -7 0 -4
-6 -7 -12 -7 -12 0 -58 -12 -227 -58 -40 -11 -57 -12 -62 -4 -7 12 30 43 121
104 25 17 51 35 58 42 6 6 21 15 32 18 11 3 20 10 20 14 0 5 14 14 30 21 17 7
30 16 30 21 0 5 4 9 10 9 5 0 41 20 80 45 39 25 72 45 74 45 2 0 35 18 72 40
78 45 83 47 83 23z m1907 -57 c1 -44 9 -324 19 -609 3 -93 -1 -101 -45 -103
-14 -1 -59 -5 -100 -9 -41 -4 -93 -9 -115 -11 -22 -1 -40 -3 -40 -4 0 -1 -23
-3 -52 -5 -29 -3 -65 -7 -80 -10 -34 -6 -139 -18 -173 -19 -26 -1 -30 10 -45
119 -3 22 -7 51 -9 65 -2 14 -7 45 -10 70 -4 25 -11 70 -16 100 -14 82 -30
186 -35 227 -2 11 -6 29 -9 40 -9 32 -16 133 -8 134 4 1 18 2 32 4 104 10 164
17 181 20 10 2 54 7 97 10 42 4 91 8 107 11 17 2 70 6 119 9 49 3 91 6 92 8 2
1 23 3 46 3 l44 1 0 -51z m1995 30 c41 -4 83 -8 94 -10 11 -2 54 -7 95 -10
100 -9 193 -20 260 -31 44 -7 91 -13 160 -21 30 -3 59 -10 64 -15 6 -5 -2 -46
-19 -101 -15 -51 -28 -97 -30 -103 -1 -5 -5 -17 -8 -25 -7 -20 -99 -332 -101
-345 -1 -5 -4 -14 -7 -20 -4 -5 -12 -34 -19 -64 l-12 -53 -67 6 c-36 4 -77 8
-91 11 -14 2 -50 6 -80 9 -30 3 -68 8 -85 10 -34 6 -133 14 -250 23 -69 5 -98
7 -138 12 -5 1 -6 4 -4 9 3 4 8 23 11 42 3 19 7 44 9 55 6 28 15 83 22 125 3
19 8 46 10 60 13 65 16 78 21 119 3 25 7 47 9 51 2 3 6 24 9 46 4 22 9 51 11
64 3 14 10 54 16 90 11 59 24 85 39 75 3 -2 39 -6 81 -9z m-2997 -276 c15 -96
29 -186 32 -200 2 -14 7 -41 10 -60 3 -19 9 -60 14 -90 6 -30 12 -68 14 -85 7
-54 17 -110 21 -122 2 -7 -4 -14 -13 -17 -24 -7 -146 -30 -222 -42 -30 -5
-188 -36 -246 -49 -10 -2 -50 -11 -89 -19 -38 -9 -75 -16 -82 -16 -11 0 -37
60 -28 68 2 3 0 13 -6 24 -6 11 -12 27 -14 36 -5 18 -48 180 -90 332 -14 52
-28 103 -30 113 -2 9 -6 21 -9 25 -3 5 -7 19 -10 33 -3 13 -8 35 -11 49 -17
65 -4 76 110 94 19 3 56 11 82 17 70 16 80 18 178 35 50 8 99 17 110 18 11 2
36 7 55 10 19 3 49 8 65 11 17 3 48 8 70 11 22 4 42 8 44 10 12 11 20 -24 45
-186z m4104 68 c146 -98 374 -269 370 -278 -2 -4 -41 -109 -87 -232 l-85 -225
-60 13 c-127 26 -222 45 -251 48 -16 2 -41 7 -55 10 -14 3 -41 8 -60 11 -57 8
-94 16 -99 21 -2 2 1 23 8 46 7 22 14 48 17 57 19 83 181 601 187 601 5 0 57
-32 115 -72z m-4924 -92 c9 -29 17 -61 19 -72 1 -10 5 -23 9 -29 3 -5 9 -26
12 -46 3 -20 10 -49 17 -65 6 -16 12 -37 14 -47 2 -10 14 -52 26 -95 12 -42
23 -86 24 -97 2 -11 8 -33 14 -48 6 -15 13 -41 16 -58 3 -16 12 -49 20 -73 16
-46 13 -72 -8 -73 -20 0 -292 -69 -426 -107 -69 -20 -125 -35 -126 -33 0 1 -6
13 -12 27 -6 14 -30 75 -53 135 -23 61 -46 119 -50 130 -25 62 -34 91 -32 98
1 4 -2 7 -8 7 -5 0 -10 6 -10 13 0 11 -45 135 -74 202 -26 59 -41 100 -41 110
0 9 44 25 108 40 9 2 21 6 25 9 5 3 19 7 33 9 13 3 44 11 69 18 25 7 50 13 55
15 6 1 48 12 95 24 47 12 94 23 105 26 11 2 43 10 70 17 91 23 92 23 109 -37z
m5403 -267 c134 -114 162 -139 226 -199 123 -114 257 -249 257 -258 0 -20 -41
-92 -53 -92 -6 0 -52 12 -102 26 -103 28 -436 111 -478 118 -59 10 -69 17 -62
39 3 12 7 28 7 35 1 6 5 12 10 12 4 0 8 7 8 15 0 8 15 54 34 102 35 92 48 125
51 133 1 3 5 14 10 25 4 11 14 35 21 53 7 17 15 32 18 32 3 0 26 -18 53 -41z
m-6337 2 c0 -9 4 -21 8 -26 5 -6 17 -32 27 -60 10 -27 42 -113 72 -190 30 -77
72 -187 95 -245 22 -58 44 -115 48 -127 11 -27 18 -22 -105 -63 -55 -18 -111
-37 -125 -43 -14 -5 -31 -11 -37 -13 -11 -2 -179 -66 -278 -105 -52 -21 -60
-20 -74 14 -8 18 -52 108 -98 201 -45 93 -83 175 -83 182 0 19 196 212 380
374 40 36 81 72 90 81 51 48 80 55 80 20z m3555 -475 c-3 -55 -7 -148 -10
-206 -12 -281 -17 -378 -20 -410 -1 -19 -3 -43 -4 -52 -1 -14 -13 -17 -73 -18
-229 -3 -558 -19 -571 -27 -4 -2 -7 10 -7 29 2 33 -8 365 -15 508 -7 143 -7
241 -1 247 3 3 31 7 63 9 32 2 90 6 128 9 39 3 162 8 275 11 113 3 207 7 208
9 2 2 10 1 18 -2 12 -4 13 -25 9 -107z m555 99 c96 -4 203 -7 237 -8 l63 -2
-6 -45 c-6 -45 -9 -62 -19 -110 -2 -14 -7 -38 -10 -55 -2 -16 -9 -55 -15 -85
-6 -30 -13 -66 -15 -80 -2 -14 -6 -41 -10 -60 -3 -19 -8 -48 -11 -65 -2 -16
-8 -50 -14 -75 -5 -25 -11 -61 -14 -80 -3 -19 -7 -46 -10 -60 -3 -14 -8 -37
-12 -52 -5 -27 -6 -27 -73 -22 -38 2 -132 6 -209 8 -77 2 -146 7 -152 11 -10
6 -9 73 5 335 4 74 16 343 19 410 1 29 6 36 26 41 14 3 30 4 35 3 6 -2 89 -6
185 -9z m510 -29 c36 -3 94 -8 130 -11 36 -3 83 -8 105 -11 22 -3 58 -7 80 -9
22 -1 61 -5 88 -9 26 -3 67 -9 92 -12 25 -3 43 -9 40 -14 -4 -7 -47 -149 -61
-200 -2 -8 -26 -89 -54 -180 -28 -91 -53 -174 -55 -184 -2 -10 -10 -35 -17
-55 -7 -20 -13 -38 -13 -41 -1 -3 -7 -29 -15 -58 l-14 -54 -66 7 c-36 3 -76 8
-90 10 -91 13 -245 27 -317 29 -24 1 -43 3 -43 6 0 3 -16 5 -35 4 -31 -2 -38
4 -37 26 0 8 11 73 16 96 6 29 17 94 21 124 2 14 6 36 9 50 2 14 7 39 9 55 3
17 15 84 27 150 13 66 24 127 25 135 3 19 18 113 21 123 1 4 2 13 3 21 1 14
14 14 151 2z m-1834 -52 c-2 -25 0 -47 5 -49 4 -3 4 -18 -1 -34 -4 -16 -6 -32
-3 -35 3 -3 7 -56 8 -118 2 -62 6 -200 10 -305 l6 -193 -28 -1 c-15 0 -37 -3
-48 -5 -11 -2 -51 -6 -90 -9 -69 -5 -124 -10 -194 -19 -120 -16 -139 -17 -145
-8 -5 9 -9 33 -21 123 -1 15 -5 39 -9 55 -6 33 -12 68 -21 134 -3 25 -8 53
-11 62 -3 9 -7 32 -9 50 -5 45 -14 103 -35 228 -9 58 -16 106 -15 108 1 1 18
4 36 7 19 2 50 6 69 9 19 3 58 8 85 11 28 3 64 8 80 10 47 6 123 13 215 21 47
3 87 8 88 10 2 1 10 0 18 -3 9 -3 13 -18 10 -49z m-901 -85 c3 -13 7 -37 10
-54 9 -64 15 -101 19 -125 2 -14 10 -59 16 -100 17 -112 19 -123 25 -150 3
-14 7 -41 9 -60 6 -42 16 -106 22 -140 2 -14 7 -46 11 -71 l5 -46 -48 -8 c-27
-5 -56 -9 -64 -10 -13 -2 -104 -19 -215 -40 -16 -3 -72 -15 -124 -26 -52 -11
-98 -16 -102 -12 -9 9 -51 158 -52 186 -1 9 -6 17 -11 17 -5 0 -7 3 -3 6 3 3
-1 23 -8 44 -7 21 -16 51 -19 67 -3 15 -14 62 -26 103 -11 41 -23 83 -25 93
-14 51 -30 108 -48 173 l-15 52 32 7 c17 3 42 9 56 11 14 3 54 12 90 20 69 16
76 18 130 28 19 3 46 8 60 11 14 3 41 8 60 11 19 3 41 7 48 10 8 2 37 7 65 10
29 4 61 10 72 14 24 9 24 9 30 -21z m3690 17 c11 -2 54 -9 95 -16 41 -6 91
-16 110 -20 19 -5 51 -11 70 -14 19 -3 50 -9 68 -15 17 -5 32 -7 32 -5 0 3 4
2 10 -1 6 -4 5 -19 -5 -41 -8 -19 -15 -38 -16 -42 -2 -11 -5 -18 -60 -162 -28
-74 -52 -139 -53 -145 -2 -5 -8 -23 -15 -40 -6 -16 -16 -41 -21 -55 -5 -14
-15 -38 -21 -55 -7 -16 -13 -32 -14 -35 -1 -3 -5 -12 -8 -20 -4 -8 -20 -51
-36 -95 -33 -91 -29 -89 -161 -61 -46 10 -135 28 -160 31 -14 2 -43 7 -65 10
-22 3 -49 7 -60 10 -11 2 -24 4 -29 4 -11 1 -4 38 27 141 66 216 151 502 170
568 l21 74 50 -6 c28 -3 60 -7 71 -10z m-6165 -5 c0 -6 38 -88 85 -183 47 -95
88 -180 90 -189 4 -13 -17 -26 -97 -59 -133 -55 -179 -76 -378 -173 -213 -104
-205 -102 -230 -67 -18 25 -19 60 -1 60 4 0 26 27 49 59 55 79 203 265 214
269 4 2 8 10 8 18 0 8 7 14 15 14 8 0 15 4 15 8 0 11 53 74 158 189 55 61 72
73 72 54z m6660 -92 c19 -5 44 -12 55 -13 11 -2 53 -11 94 -21 40 -9 78 -18
85 -20 6 -1 18 -5 26 -8 8 -3 26 -7 40 -10 14 -2 79 -19 145 -37 66 -18 126
-33 133 -33 6 0 12 -4 12 -9 0 -8 -280 -564 -298 -593 -4 -5 -7 -12 -7 -15 -1
-9 -57 -114 -67 -127 -7 -9 -21 -8 -60 4 -50 14 -66 18 -115 29 -12 2 -34 9
-48 14 -14 5 -29 9 -33 9 -4 -1 -10 0 -14 1 -5 1 -11 3 -15 4 -31 8 -71 17
-88 21 -11 2 -35 8 -52 14 -18 5 -33 7 -33 4 0 -3 -6 -1 -12 4 -7 5 -20 9 -28
8 -8 -1 -23 2 -32 7 -15 7 -14 15 13 91 17 45 36 96 41 112 6 17 14 35 18 40
4 6 17 39 29 75 13 36 39 106 58 155 19 50 36 95 38 100 1 6 7 24 14 40 6 17
23 60 37 98 14 37 27 67 27 67 1 0 18 -5 37 -11z m-4880 -54 c7 -8 10 -15 7
-15 -3 0 3 -30 14 -67 11 -38 22 -79 25 -93 2 -14 9 -36 14 -50 5 -14 21 -70
36 -125 36 -138 81 -303 93 -343 12 -39 25 -32 -139 -73 -148 -36 -200 -49
-220 -55 -71 -18 -87 -22 -98 -25 -8 -2 -19 11 -26 31 -17 46 -206 535 -246
635 -20 50 -20 53 13 61 18 4 35 9 40 10 4 1 8 2 10 4 1 1 9 3 17 5 8 2 51 14
95 26 191 52 321 87 336 88 9 0 22 -6 29 -14z m5890 -226 c52 -17 102 -33 110
-37 20 -7 21 -8 52 -16 15 -5 36 -22 47 -40 11 -17 32 -45 46 -61 14 -17 42
-53 62 -82 l36 -52 -34 -53 c-18 -29 -36 -55 -39 -58 -3 -3 -34 -50 -70 -105
-36 -55 -67 -102 -70 -105 -3 -3 -39 -54 -79 -115 -91 -135 -101 -147 -115
-136 -9 7 -388 140 -406 143 -3 0 -15 4 -28 9 -22 8 -20 13 89 226 61 120 147
289 191 375 67 130 83 155 97 148 9 -5 59 -23 111 -41z m-6664 -174 c69 -179
71 -184 100 -255 11 -24 19 -47 19 -50 0 -3 20 -54 44 -113 45 -111 45 -124 3
-132 -11 -2 -30 -9 -42 -15 -12 -6 -29 -13 -38 -15 -46 -9 -234 -74 -318 -110
-18 -8 -47 -17 -65 -20 -34 -6 -34 -5 -63 57 -16 35 -90 186 -164 337 -74 150
-130 277 -125 281 7 6 268 110 278 110 2 0 16 5 32 12 34 14 31 13 68 23 17 4
35 10 40 14 26 15 132 49 148 48 14 -2 34 -42 83 -172z m-652 -188 c33 -67
106 -216 163 -332 57 -115 103 -212 103 -215 0 -6 -55 -40 -67 -42 -15 -1
-179 -68 -273 -111 -75 -34 -172 -77 -175 -77 -1 0 -29 35 -61 78 -32 42 -61
79 -64 82 -3 3 -9 12 -15 22 -11 18 -177 239 -275 364 -22 29 -40 54 -40 57 0
13 605 296 635 297 6 0 37 -55 69 -123z m3751 -61 c-2 -67 -5 -121 -5 -121 -1
0 -3 -40 -5 -90 -1 -49 -6 -153 -11 -230 -4 -77 -7 -150 -7 -162 1 -18 -5 -23
-26 -23 -139 -3 -403 -11 -473 -14 -76 -3 -88 -2 -89 13 -2 31 -9 196 -9 209
0 6 0 18 0 25 1 13 -8 274 -14 409 l-3 78 31 1 c89 4 151 7 151 9 0 1 74 4
165 7 91 2 166 6 167 6 1 1 31 2 67 3 l65 0 -4 -120z m530 109 c105 -4 196 -7
203 -8 16 0 15 -10 -33 -277 -18 -102 -36 -203 -39 -225 -4 -22 -11 -62 -16
-90 -5 -27 -15 -76 -21 -107 l-10 -57 -62 5 c-34 2 -102 6 -152 8 -49 2 -98 7
-107 11 -18 7 -18 -3 -3 300 3 55 8 159 11 230 3 72 7 146 9 165 2 19 4 40 4
47 1 7 7 11 14 8 6 -2 98 -7 202 -10z m-1238 -28 c3 -4 8 -42 9 -85 6 -178 15
-493 18 -564 1 -50 -1 -79 -8 -80 -15 -2 -49 -5 -141 -12 -44 -4 -107 -9 -140
-12 -33 -4 -72 -7 -87 -9 -30 -3 -32 1 -43 75 -4 25 -9 52 -10 60 -3 19 -13
83 -21 134 -3 21 -7 48 -10 59 -2 12 -6 39 -9 62 -3 22 -8 51 -10 65 -3 14 -7
41 -10 60 -3 19 -10 60 -15 90 -5 30 -11 67 -14 83 -3 15 -2 27 2 28 4 0 16 2
27 5 11 2 47 7 80 10 33 3 71 7 85 9 23 4 90 11 203 20 27 2 51 6 54 8 6 7 31
3 40 -6z m1708 -2 c87 -8 178 -17 195 -20 8 -1 44 -6 80 -9 36 -4 74 -9 85
-11 11 -2 24 -4 29 -4 4 -1 5 -9 2 -18 -7 -16 -53 -174 -102 -343 -14 -47 -28
-92 -31 -100 -3 -8 -7 -19 -8 -25 -6 -21 -77 -260 -79 -262 -1 -1 -33 2 -71 8
-97 14 -143 20 -190 23 -50 4 -195 18 -215 21 -15 2 -17 26 -6 72 2 11 8 43
12 70 5 26 9 50 9 53 1 3 5 25 9 50 5 25 10 54 12 65 2 10 6 35 9 55 6 38 9
56 25 135 5 28 12 64 14 80 6 37 17 95 21 115 2 8 4 26 4 38 1 23 3 24 69 18
37 -4 94 -9 127 -11z m3055 -143 c50 -76 95 -142 100 -149 6 -7 10 -14 10 -17
0 -3 23 -41 51 -85 56 -89 56 -96 6 -152 -17 -20 -59 -70 -92 -112 -33 -43
-63 -77 -68 -77 -4 0 -27 9 -50 19 -23 11 -110 47 -192 81 -83 33 -158 65
-167 70 -10 6 -25 10 -33 10 -34 0 -22 32 55 146 45 65 125 185 178 265 53 80
101 144 105 142 4 -3 48 -66 97 -141z m-5553 35 c0 -12 8 -64 27 -187 11 -68
17 -105 26 -155 5 -27 12 -70 15 -95 3 -25 8 -58 12 -75 3 -16 7 -41 9 -55 2
-14 6 -48 10 -77 l6 -52 -33 -5 c-19 -3 -92 -15 -163 -27 -128 -21 -142 -23
-201 -36 -64 -13 -78 -10 -87 22 -12 45 -49 178 -53 195 -2 8 -15 58 -30 110
-25 90 -74 273 -80 295 -1 6 -6 18 -10 28 -4 10 -4 22 1 26 9 8 243 58 311 67
19 2 38 6 42 8 3 2 29 7 56 11 28 3 66 10 85 14 40 9 57 5 57 -12z m3263 9
c14 -3 41 -7 60 -10 19 -3 94 -17 165 -32 72 -14 136 -26 143 -27 13 0 16 -19
5 -31 -4 -3 -8 -12 -9 -19 -1 -7 -28 -79 -59 -162 -60 -155 -69 -180 -151
-402 l-49 -133 -35 5 c-36 5 -61 10 -102 21 -13 3 -34 7 -48 9 -29 5 -64 11
-100 20 -14 3 -40 7 -59 9 -44 6 -55 18 -45 47 4 13 9 27 10 32 1 4 3 9 4 12
1 3 4 10 5 15 1 6 3 11 5 13 1 1 3 9 5 17 1 9 22 79 45 155 23 77 43 147 45
155 2 8 11 38 20 65 10 28 18 55 19 60 1 6 5 19 8 30 4 11 16 52 28 92 22 78
15 73 90 59z m543 -107 c45 -12 93 -23 107 -25 14 -3 39 -9 55 -14 17 -5 41
-11 55 -14 14 -2 51 -12 84 -21 58 -17 81 -23 101 -24 36 -4 34 -19 -16 -117
-28 -54 -110 -215 -182 -358 -72 -142 -136 -260 -142 -262 -7 -3 -45 5 -86 16
-41 12 -81 23 -89 25 -8 2 -27 8 -41 13 -15 6 -29 8 -32 5 -3 -3 -12 -1 -19 3
-7 5 -24 10 -38 12 -14 1 -36 7 -50 12 -14 5 -35 11 -48 13 -35 5 -42 19 -28
52 22 50 68 174 65 177 -1 2 4 14 11 28 8 14 15 30 16 35 1 6 16 46 34 90 17
44 54 139 80 210 27 72 52 138 55 148 9 21 10 21 108 -4z m-4409 -51 c25 -90
86 -313 91 -333 6 -27 53 -199 70 -258 11 -37 11 -49 2 -52 -16 -5 -135 -33
-167 -39 -14 -3 -35 -7 -47 -10 -13 -4 -31 -8 -40 -10 -10 -2 -44 -11 -76 -19
l-58 -15 -14 31 c-44 98 -244 631 -239 636 3 3 10 7 15 7 5 1 10 2 12 4 2 2
17 6 55 14 13 3 32 8 42 11 10 3 27 8 37 10 10 2 54 13 98 25 44 11 91 23 105
26 14 2 39 8 55 13 17 5 33 10 37 10 4 1 13 -23 22 -51z m-2543 -152 c24 -32
49 -66 54 -75 6 -9 13 -18 16 -21 3 -3 48 -61 99 -130 52 -69 121 -160 153
-203 33 -44 55 -82 51 -87 -5 -4 -61 -35 -124 -68 -63 -33 -144 -76 -178 -96
-64 -36 -82 -42 -82 -28 0 4 -18 27 -40 52 -22 25 -43 50 -47 55 -5 6 -28 35
-53 65 -25 30 -48 60 -53 65 -4 6 -21 26 -37 45 -17 19 -40 48 -53 63 -12 15
-30 38 -40 50 -10 12 -31 37 -45 56 -15 18 -35 42 -44 53 -16 19 -15 48 2 48
4 0 10 8 12 18 5 16 133 99 305 198 42 24 38 27 104 -60z m7852 -51 c89 -29
192 -64 228 -77 l67 -23 -75 -115 c-42 -63 -80 -116 -84 -118 -5 -2 -9 -8 -9
-13 0 -7 -56 -95 -70 -109 -3 -3 -9 -13 -15 -22 -33 -58 -221 -328 -228 -328
-5 0 -68 22 -140 49 -73 27 -151 55 -174 62 -24 7 -43 16 -43 21 0 5 17 41 37
81 20 39 36 75 35 80 -1 4 2 7 8 7 6 0 10 9 10 19 0 11 4 21 8 23 4 2 37 62
72 133 35 72 68 133 73 136 5 3 7 8 5 10 -5 6 116 239 125 239 4 0 81 -25 170
-55z m-6041 -53 c20 -53 69 -180 109 -282 39 -102 80 -206 89 -231 l17 -47
-131 -42 c-72 -23 -174 -57 -227 -76 -53 -19 -102 -34 -108 -34 -12 0 -311
601 -311 626 0 8 6 14 13 14 7 0 79 25 160 55 81 30 157 57 170 59 12 3 23 5
25 7 1 1 5 2 10 4 4 1 14 4 22 8 31 12 105 36 115 36 6 1 27 -43 47 -97z
m6424 -81 c5 -5 27 -14 49 -21 22 -7 58 -21 80 -30 22 -10 102 -44 177 -76
l137 -58 -33 -41 c-17 -22 -59 -74 -92 -115 -32 -41 -66 -83 -74 -93 -8 -11
-19 -24 -25 -31 -5 -6 -73 -90 -150 -186 -77 -96 -145 -181 -152 -188 -7 -7
-13 -17 -13 -22 0 -9 -32 2 -135 49 -33 15 -108 47 -167 71 -83 34 -105 47
-100 59 3 9 8 18 11 21 6 5 279 409 296 438 6 9 12 19 15 22 3 3 36 51 73 108
65 98 81 113 103 93z m-6990 -141 c4 -8 60 -124 126 -258 65 -134 118 -249
118 -256 0 -7 -6 -13 -12 -13 -7 0 -87 -30 -178 -67 -91 -37 -172 -70 -181
-73 -11 -3 -28 11 -53 44 -20 26 -39 53 -44 58 -4 6 -19 26 -32 45 -14 19 -28
37 -31 40 -3 3 -25 32 -49 64 -24 33 -49 67 -56 75 -37 45 -174 231 -174 236
0 4 26 17 58 31 31 14 86 39 122 56 36 17 70 31 75 32 6 1 32 12 59 24 27 12
50 22 51 22 1 0 20 8 41 17 22 9 44 18 51 19 6 1 19 7 30 12 16 10 22 4 45
-41 15 -29 30 -59 34 -67z m-1655 18 c28 -35 61 -74 73 -88 11 -14 73 -88 136
-165 63 -77 123 -149 132 -159 10 -11 18 -22 18 -25 0 -5 -137 -89 -228 -141
-15 -8 -56 -35 -92 -60 -67 -46 -115 -77 -162 -105 -27 -15 -29 -15 -72 27
-24 24 -72 69 -105 100 -34 31 -61 61 -61 66 0 15 82 189 182 387 50 99 96
190 102 202 6 13 14 23 18 23 4 0 30 -28 59 -62z m9528 -138 l52 -101 -33 14
c-18 8 -63 29 -100 48 l-68 34 23 27 c13 15 32 38 43 52 10 14 22 26 25 26 4
0 30 -45 58 -100z m-39 -116 c129 -66 130 -67 156 -123 15 -31 28 -58 28 -61
1 -3 8 -16 15 -29 12 -21 10 -26 -26 -63 -281 -290 -511 -518 -522 -518 -7 0
-26 9 -42 21 -16 11 -29 17 -29 14 0 -3 -12 2 -27 13 -16 11 -71 41 -123 67
-119 60 -123 63 -107 80 7 8 129 160 272 339 143 179 264 326 268 326 4 0 66
-30 137 -66z m-4484 27 c7 -1 10 -19 7 -48 -2 -27 -5 -79 -7 -118 -3 -38 -5
-73 -5 -77 -1 -7 -31 -5 -101 7 -14 2 -45 7 -70 10 -25 3 -57 8 -72 11 -15 3
-49 7 -75 9 -229 18 -233 19 -234 53 0 15 -2 53 -3 85 -1 45 1 57 14 58 105 3
234 10 236 12 2 2 288 1 310 -2z m564 -16 c25 -2 49 -4 53 -4 5 -1 6 -9 3 -18
-3 -10 -7 -34 -10 -53 -8 -48 -15 -89 -23 -130 -3 -19 -7 -43 -8 -52 -2 -10
-4 -19 -5 -20 -1 -2 -3 -15 -4 -29 -3 -33 -15 -51 -27 -43 -6 3 -20 7 -32 9
-62 8 -207 49 -208 59 -1 11 1 60 7 191 1 33 3 70 3 82 1 22 3 22 104 17 56
-3 122 -7 147 -9z m-1183 -85 l1 -79 -101 5 c-56 3 -137 7 -179 8 -43 1 -80 5
-83 7 -2 3 -7 23 -10 45 -3 21 -8 45 -10 52 -2 6 -1 12 3 13 48 7 178 19 262
25 47 3 87 8 88 9 2 2 9 2 15 -1 8 -3 13 -34 14 -84z m-3547 63 c9 -10 85
-110 169 -223 85 -113 158 -206 162 -208 5 -2 9 -9 9 -17 0 -7 7 -19 17 -26 9
-8 24 -27 34 -44 l18 -29 -122 -62 c-67 -34 -144 -73 -170 -88 -26 -14 -53
-26 -58 -26 -12 0 -39 25 -39 36 0 4 -6 12 -14 18 -7 6 -44 49 -82 96 -38 47
-71 87 -74 90 -3 3 -35 41 -70 85 -36 44 -67 82 -70 85 -3 3 -27 32 -54 64
l-48 60 24 18 c13 10 32 21 43 24 11 4 22 10 25 13 3 4 39 24 80 46 41 21 102
53 135 72 71 38 67 38 85 16z m4980 3 c25 -3 70 -8 100 -11 30 -3 66 -7 80
-10 14 -2 51 -7 82 -9 32 -3 62 -7 67 -10 5 -4 3 -27 -6 -53 -8 -27 -16 -52
-17 -58 -11 -44 -28 -103 -33 -115 -6 -15 -8 -21 -17 -55 -3 -11 -14 -48 -23
-82 -12 -43 -23 -63 -33 -63 -9 0 -54 13 -100 29 -47 16 -131 42 -188 57
l-103 29 6 50 c4 28 11 66 15 85 5 19 11 51 13 70 2 19 10 63 17 97 l12 61 42
-3 c22 -2 61 -6 86 -9z m-2118 -70 c4 -6 8 -23 8 -38 0 -27 -3 -28 -47 -29
-83 -2 -273 -15 -357 -25 -29 -3 -46 -1 -46 6 0 5 0 13 0 18 0 4 3 7 8 7 4 1
23 4 42 8 19 3 49 9 65 12 17 2 41 7 55 10 14 3 43 8 65 11 22 4 69 12 105 18
81 15 93 16 102 2z m2793 -26 c0 -1 9 -3 20 -5 100 -14 122 -18 140 -25 11 -4
23 -8 28 -8 23 -1 96 -15 124 -23 32 -10 33 -11 18 -40 -9 -16 -13 -29 -9 -29
4 0 2 -6 -3 -12 -6 -7 -22 -47 -37 -88 -15 -41 -31 -84 -36 -95 -4 -11 -24
-63 -44 -115 -19 -52 -41 -108 -47 -125 -7 -16 -12 -33 -11 -37 1 -5 0 -8 -3
-8 -6 0 -108 42 -175 72 -24 11 -49 22 -55 23 -5 1 -29 10 -52 20 l-42 18 14
36 c8 20 16 45 18 56 3 20 43 155 54 185 3 8 7 21 9 28 2 12 40 143 49 169 3
9 40 12 40 3z m-3302 -64 c4 -9 0 -15 -11 -15 -20 0 -90 -9 -150 -21 -24 -4
-40 -5 -35 -1 8 7 87 27 148 38 17 3 32 7 34 9 7 6 8 5 14 -10z m3922 -71 c50
-13 105 -28 123 -34 18 -5 36 -10 40 -10 44 -5 43 -7 -110 -309 -83 -163 -152
-299 -154 -301 -5 -6 -67 21 -88 38 -10 9 -19 14 -20 12 -2 -5 -216 99 -216
106 0 6 137 376 155 418 7 17 18 48 25 70 23 72 13 72 245 10z m-6647 -74 c15
-18 34 -41 42 -51 8 -10 27 -33 42 -51 14 -19 36 -45 48 -59 100 -117 242
-292 238 -295 -7 -6 -139 -85 -143 -85 -8 0 -110 -65 -113 -72 -2 -5 -8 -8
-14 -8 -5 0 -29 -13 -53 -30 -24 -16 -47 -30 -50 -30 -4 0 -18 -9 -32 -20
l-24 -19 -76 72 c-42 40 -97 92 -123 117 -26 25 -106 101 -178 169 -73 69
-132 128 -132 132 0 3 33 27 73 52 39 25 77 50 82 54 18 15 154 103 159 103 3
0 44 25 92 55 l88 55 24 -27 c13 -16 36 -43 50 -62z m9314 -121 c6 -14 12 -27
13 -30 1 -3 6 -16 12 -30 38 -91 93 -236 93 -245 0 -7 -34 -43 -76 -81 -73
-66 -90 -81 -181 -165 -21 -19 -50 -43 -65 -53 l-27 -17 -106 70 c-58 39 -108
71 -110 71 -2 0 -33 19 -70 41 -57 36 -64 44 -53 57 7 9 125 130 262 269 l250
253 24 -57 c13 -32 28 -69 34 -83z m-2046 4 c71 -25 145 -51 164 -58 19 -7 34
-17 33 -22 -4 -17 -68 -114 -75 -114 -5 0 -8 -4 -8 -10 0 -5 -51 -84 -112
-175 -62 -91 -117 -173 -123 -183 -5 -9 -12 -19 -15 -22 -3 -3 -28 -40 -55
-82 -28 -42 -54 -77 -60 -77 -5 -1 -32 14 -60 31 -63 40 -104 65 -132 80 -13
6 -23 15 -23 19 0 9 264 531 292 577 11 17 17 32 14 32 -4 0 1 11 10 25 9 14
18 25 19 25 2 0 61 -21 131 -46z m-3780 -122 c-3 -9 -7 -33 -10 -52 -4 -19 -8
-48 -11 -65 -3 -16 -8 -46 -11 -65 -2 -19 -9 -62 -15 -95 -13 -77 -17 -98 -26
-154 -4 -25 -8 -48 -8 -51 -2 -7 -18 -111 -20 -130 -1 -8 -5 -26 -8 -40 -6
-24 -14 -81 -22 -149 -3 -19 -8 -38 -13 -43 -5 -5 -55 1 -113 12 -57 12 -119
23 -138 26 -19 2 -46 6 -60 9 -14 2 -62 9 -107 15 -44 6 -91 13 -105 16 -13 2
-44 7 -69 10 -25 2 -65 7 -90 10 -25 3 -54 6 -65 7 -19 2 -19 13 -22 354 l-4
352 33 5 c67 11 115 17 178 22 36 2 85 7 110 9 25 3 133 8 240 11 107 4 196 7
197 8 1 0 38 0 83 -2 70 -3 80 -6 76 -20z m4299 -81 c22 -10 59 -26 82 -36
l42 -18 -17 -26 c-9 -14 -19 -28 -22 -31 -10 -10 -285 -351 -307 -382 -12 -17
-26 -34 -31 -37 -5 -3 -29 -34 -54 -68 -25 -34 -48 -59 -52 -56 -3 4 -6 1 -6
-6 0 -16 -71 -101 -85 -101 -6 0 -20 8 -31 18 -10 9 -62 46 -114 81 -125 84
-127 86 -110 107 8 9 19 24 25 34 5 11 64 98 130 195 66 96 127 186 135 199
42 66 95 142 105 148 6 5 6 8 0 8 -6 0 -6 3 0 8 6 4 21 21 33 39 l22 32 108
-45 c59 -25 125 -53 147 -63z m-3805 64 c25 -3 59 -7 75 -9 17 -2 53 -7 80
-11 53 -7 202 -31 245 -40 14 -3 41 -8 60 -11 30 -5 78 -15 130 -29 8 -2 25
-4 38 -4 24 -1 30 -27 12 -59 -9 -16 -80 -214 -85 -236 -1 -6 -7 -22 -12 -36
-13 -32 -93 -260 -98 -280 -4 -16 -80 -230 -95 -266 -9 -22 -15 -22 -85 -11
-31 6 -100 16 -145 22 -14 2 -43 6 -65 9 -77 11 -121 16 -175 21 -30 2 -80 7
-111 9 -77 7 -112 21 -105 44 3 9 8 37 11 62 4 25 10 65 15 90 5 24 6 48 4 52
-2 3 0 9 6 13 6 4 8 10 6 14 -3 4 -1 25 4 47 5 21 12 63 15 93 3 30 8 57 10
61 2 3 7 28 10 56 4 27 8 58 10 69 2 11 6 38 10 60 3 22 8 47 10 55 2 8 7 35
10 60 3 25 7 52 9 60 1 8 6 37 11 63 l8 49 71 -6 c39 -3 91 -8 116 -11z
m-4872 -48 c23 -23 42 -45 42 -49 0 -3 -37 -34 -82 -68 -46 -35 -89 -68 -97
-74 -10 -8 -10 -3 3 21 9 18 16 35 15 38 0 3 9 32 21 63 12 31 27 69 32 85 6
15 13 27 17 27 4 0 26 -19 49 -43z m3403 -144 c0 -93 1 -242 3 -333 1 -91 0
-170 -2 -177 -2 -8 -18 -10 -44 -8 -80 9 -257 17 -408 20 l-155 2 -14 29 c-8
16 -15 36 -16 44 -1 8 -5 22 -8 30 -12 33 -69 216 -73 239 -3 13 -9 32 -15 43
-5 10 -7 18 -4 18 4 0 3 6 -2 13 -8 13 -12 25 -20 72 -3 17 -2 27 2 23 4 -3
28 0 53 8 26 8 56 16 67 18 11 2 27 6 35 10 8 3 26 8 40 10 14 3 51 12 82 19
32 8 60 12 63 9 3 -3 5 0 5 7 0 7 4 10 8 7 4 -3 26 -1 48 4 47 11 92 20 119
24 11 2 34 6 50 9 17 3 50 9 75 12 25 4 47 9 49 11 2 2 17 4 33 4 l28 0 1
-167z m2279 40 c30 -8 62 -16 70 -18 40 -10 202 -59 254 -77 32 -11 63 -21 70
-23 12 -2 28 -8 106 -38 30 -12 57 -22 60 -22 11 0 106 -38 114 -45 7 -7 -52
-127 -184 -375 -53 -100 -131 -247 -180 -342 -24 -46 -45 -83 -48 -83 -8 0
-123 31 -142 37 -17 7 -13 6 -100 28 -36 9 -78 18 -93 21 -16 2 -33 6 -38 9
-9 6 -25 10 -83 21 -16 2 -32 7 -35 9 -4 2 -27 6 -51 10 -50 8 -51 8 -97 19
l-31 7 25 72 c14 40 45 128 70 197 24 69 46 130 47 135 2 6 6 17 9 25 12 28
109 305 111 317 1 7 5 16 9 19 4 4 7 13 7 19 0 7 9 34 21 59 16 37 24 46 37
41 9 -4 42 -14 72 -22z m-5510 -59 c36 -34 86 -82 111 -106 26 -23 108 -101
183 -172 l135 -129 -92 -65 c-51 -37 -97 -71 -103 -77 -6 -5 -26 -21 -44 -35
-18 -14 -49 -37 -68 -52 l-34 -28 -47 32 c-25 18 -52 38 -59 45 -7 7 -19 13
-27 13 -7 0 -15 4 -17 8 -1 5 -64 51 -138 102 -74 52 -147 104 -162 116 -15
12 -32 24 -39 26 -13 4 42 181 63 201 7 7 45 37 83 67 39 30 72 58 73 62 2 5
10 8 17 8 7 0 15 3 17 8 7 17 61 51 72 45 6 -3 40 -34 76 -69z m8954 -66 c33
-17 105 -56 159 -86 l98 -55 -38 -40 c-55 -57 -338 -345 -526 -535 -146 -148
-163 -163 -181 -152 -28 18 -176 141 -176 147 0 2 21 30 46 61 25 31 51 64 57
72 43 54 94 117 102 126 14 16 30 37 95 119 30 39 58 72 62 73 5 2 8 10 8 18
0 8 4 14 8 14 5 0 55 61 113 135 57 74 106 134 108 135 2 0 31 -14 65 -32z
m-6758 -55 c10 -32 19 -62 20 -68 1 -5 12 -40 23 -77 12 -38 30 -97 40 -133
11 -35 22 -69 26 -75 3 -5 3 -10 -2 -11 -32 -4 -68 -7 -138 -13 -44 -3 -97 -8
-118 -11 -22 -3 -60 -7 -85 -9 -26 -3 -63 -7 -83 -11 -20 -3 -51 -7 -70 -10
-30 -3 -73 -9 -134 -20 -11 -2 -31 -6 -45 -9 -14 -3 -43 -8 -64 -11 -22 -3
-42 -8 -45 -10 -5 -5 -40 62 -41 78 0 4 -11 30 -25 59 -14 28 -25 57 -25 62 0
11 31 27 205 106 133 61 145 66 205 90 30 12 69 28 85 35 22 10 239 92 252 95
1 0 9 -26 19 -57z m7133 -153 c6 0 11 -4 11 -10 0 -5 6 -10 13 -10 6 0 67 -36
134 -80 90 -58 121 -83 117 -95 -3 -8 -9 -15 -13 -15 -7 0 -30 -20 -132 -114
-30 -28 -93 -85 -139 -126 -119 -107 -119 -107 -211 -192 -46 -42 -94 -85
-107 -96 -32 -28 -193 -174 -209 -191 -15 -15 -11 -17 -103 69 -20 19 -65 59
-99 89 -34 30 -60 58 -59 62 3 7 654 675 712 730 18 18 20 18 47 -1 15 -11 32
-20 38 -20z m952 -72 c17 -57 34 -110 37 -118 3 -8 6 -23 7 -32 1 -9 7 -30 13
-45 6 -15 16 -48 23 -73 23 -93 22 -95 -27 -52 -17 15 -49 41 -70 57 -20 17
-42 35 -48 40 -6 6 -34 26 -61 45 -120 84 -122 86 -80 124 19 17 66 59 103 93
37 35 68 63 69 63 1 0 16 -46 34 -102z m-3626 -28 c99 -50 196 -100 215 -112
19 -11 64 -36 100 -56 105 -58 173 -104 163 -111 -5 -3 -22 -24 -38 -46 -17
-22 -32 -42 -36 -45 -3 -3 -29 -36 -59 -75 -29 -38 -65 -84 -79 -101 -14 -16
-37 -45 -51 -64 -14 -18 -29 -38 -35 -44 -23 -25 -163 -203 -176 -224 -7 -12
-19 -24 -27 -27 -13 -5 -75 17 -172 62 -61 28 -169 70 -352 138 -38 14 -46 21
-42 38 2 11 7 23 11 26 5 3 32 53 61 111 46 91 80 157 155 297 10 18 17 34 15
35 -1 2 10 21 24 43 14 22 49 86 77 143 29 56 55 102 59 102 4 0 88 -41 187
-90z m-7038 -23 c15 -12 48 -36 73 -52 25 -17 47 -32 50 -35 3 -3 41 -30 85
-60 44 -30 89 -62 99 -72 11 -10 25 -18 30 -18 6 0 29 -16 51 -35 l40 -34 -25
-18 c-22 -15 -186 -157 -200 -173 -3 -3 -81 -75 -175 -160 -224 -204 -255
-232 -277 -252 -16 -16 -22 -15 -19 4 1 12 11 63 16 88 3 14 8 36 10 50 2 14
6 35 9 46 2 12 14 66 26 120 12 55 24 113 27 129 3 17 11 48 18 70 7 22 18 65
25 95 12 57 17 73 49 180 11 36 25 84 31 108 6 23 15 42 20 42 4 0 21 -10 37
-23z m1760 -29 c9 -12 73 -163 73 -172 0 -2 -17 -7 -37 -11 -21 -5 -42 -9 -48
-11 -24 -6 -222 -55 -239 -59 -38 -9 -202 -58 -261 -77 -106 -36 -150 -49
-140 -40 24 21 234 152 243 152 6 0 12 4 14 8 3 10 142 93 258 155 41 22 84
46 95 54 24 16 30 16 42 1z m8598 -291 c61 -47 125 -98 143 -114 l34 -28 -44
-32 c-40 -30 -549 -396 -591 -425 -11 -7 -41 -29 -67 -48 -26 -19 -58 -42 -70
-50 -12 -8 -70 -50 -130 -93 l-108 -78 -74 77 c-40 42 -79 83 -86 90 -12 12
-9 19 18 44 18 17 33 30 35 30 2 0 26 21 53 48 55 52 173 159 267 242 33 29
69 62 81 74 12 11 50 47 85 78 36 31 81 71 100 90 185 171 220 199 234 189 5
-5 60 -47 120 -94z m-2646 -48 c112 -76 365 -261 458 -336 l22 -18 -87 -72
c-48 -39 -101 -84 -118 -100 -17 -15 -42 -37 -55 -48 -145 -122 -277 -233
-291 -248 -18 -17 -21 -16 -76 15 -103 58 -214 117 -360 189 l-143 71 35 44
c20 24 53 65 74 92 20 26 39 49 42 52 3 3 23 29 45 58 21 28 43 52 47 52 4 0
8 5 8 11 0 6 25 41 56 77 68 82 86 105 149 187 28 36 52 65 54 65 2 0 65 -41
140 -91z m-2514 -39 c0 -2 24 -6 90 -16 33 -4 65 -9 70 -10 6 -1 18 -2 28 -3
20 -1 23 -30 4 -54 -11 -16 -16 -17 -57 -2 -25 8 -54 19 -65 25 -11 5 -53 20
-93 33 -92 31 -100 39 -32 33 30 -3 55 -5 55 -6z m423 -75 c91 -20 267 -64
397 -99 6 -2 24 -6 40 -10 17 -4 37 -10 45 -13 8 -4 18 -6 22 -5 11 3 -5 -34
-51 -117 -23 -41 -41 -78 -41 -82 0 -14 -8 -11 -73 25 -78 42 -245 126 -317
159 -30 13 -81 36 -113 51 -32 14 -62 26 -67 26 -16 0 -19 17 -9 53 12 45 13
45 167 12z m4993 -45 c16 -16 29 -28 29 -25 0 3 28 -21 62 -53 34 -31 84 -77
111 -102 l49 -46 -103 -62 c-56 -34 -106 -62 -110 -62 -5 0 -9 -5 -9 -11 0 -5
-4 -8 -9 -5 -5 4 -11 3 -13 -2 -1 -4 -104 -68 -228 -142 -124 -74 -227 -137
-230 -140 -3 -3 -18 -12 -35 -20 -16 -8 -32 -18 -35 -21 -3 -3 -50 -32 -105
-64 -55 -32 -130 -78 -167 -102 -37 -24 -73 -43 -80 -42 -11 0 -79 74 -157
171 l-24 29 23 17 c13 9 43 31 66 47 23 17 90 65 149 108 58 42 110 77 116 77
5 0 9 4 9 8 0 4 14 16 31 26 18 10 39 25 48 33 25 22 151 113 157 113 3 0 12
6 19 13 33 29 45 37 54 37 5 0 11 4 13 8 2 4 35 30 73 57 39 27 88 63 111 80
23 16 51 37 64 45 12 8 28 20 34 26 11 11 48 33 55 34 2 0 17 -13 32 -30z
m-4070 -225 c143 -54 209 -80 264 -106 22 -10 67 -30 100 -43 32 -13 61 -28
62 -33 2 -5 -10 -25 -27 -44 -34 -39 -35 -41 -75 -94 -16 -22 -38 -49 -48 -60
-10 -11 -39 -48 -65 -82 -26 -34 -50 -63 -53 -63 -3 0 -14 8 -25 18 -10 10
-35 29 -54 42 -19 13 -40 29 -46 35 -31 27 -61 49 -177 127 l-125 84 55 105
c80 153 83 159 88 159 2 0 59 -20 126 -45z m1905 -187 c90 -79 454 -445 454
-457 0 -6 -8 -15 -17 -18 -10 -4 -27 -15 -37 -25 -11 -10 -23 -18 -28 -18 -4
0 -30 -16 -57 -35 -26 -19 -53 -35 -59 -35 -6 0 -12 -3 -14 -7 -3 -8 -68 -51
-203 -138 -33 -21 -65 -42 -71 -47 -9 -7 -75 33 -112 69 -7 7 -17 13 -21 13
-4 0 -16 8 -27 18 -11 9 -27 22 -36 27 -8 6 -78 52 -154 104 -76 52 -141 95
-144 95 -3 0 -17 11 -32 24 l-26 24 96 81 c54 45 102 86 108 92 6 5 30 26 54
45 24 19 49 40 55 47 6 6 41 35 76 64 35 29 80 68 99 86 19 18 37 33 41 33 3
0 28 -19 55 -42z m-1263 -93 c144 -71 213 -107 336 -177 l54 -31 -45 -41 c-25
-23 -65 -57 -88 -76 -24 -19 -48 -40 -54 -45 -6 -6 -38 -33 -71 -60 -33 -28
-66 -55 -73 -62 -7 -7 -34 -29 -60 -50 -26 -21 -51 -44 -55 -50 -13 -21 -25
-15 -70 30 -104 101 -277 257 -288 257 -19 0 -17 35 3 60 13 15 34 42 48 60
14 18 30 37 35 44 6 6 33 39 60 74 28 35 62 78 77 95 15 18 28 35 28 40 0 12
3 10 163 -68z m3742 -55 c3 -25 10 -72 15 -105 18 -111 29 -203 34 -274 1 -14
-46 -15 -411 -16 -227 0 -413 1 -413 2 0 5 251 153 259 153 6 0 11 5 11 10 0
6 7 10 15 10 8 0 15 5 15 10 0 6 4 10 9 10 10 0 297 171 318 190 7 5 16 10 20
10 5 0 31 15 58 34 56 38 60 36 70 -34z m-2946 -404 c173 -116 289 -197 341
-238 l34 -27 -25 -20 c-13 -11 -27 -20 -30 -21 -4 0 -56 -32 -115 -71 -60 -40
-131 -87 -159 -105 l-50 -32 -269 -1 c-308 0 -263 -13 -365 107 l-54 63 43 37
c24 20 80 69 125 107 45 39 104 88 130 110 63 53 98 82 170 144 33 28 62 51
64 51 2 0 74 -47 160 -104z m1004 7 c23 -26 52 -57 64 -70 11 -13 36 -43 55
-66 18 -22 40 -48 48 -57 21 -21 244 -309 248 -320 2 -4 -143 -8 -320 -8
l-324 0 -31 26 c-17 15 -60 49 -95 77 -35 27 -65 52 -68 55 -3 3 -29 23 -57
45 -29 21 -53 40 -53 41 0 2 33 24 73 51 39 26 74 51 75 56 2 4 9 7 16 7 7 0
26 11 42 25 16 14 32 25 35 25 4 0 60 36 125 79 66 44 121 80 122 80 2 1 23
-20 45 -46z m-449 -409 c66 -54 125 -100 129 -104 5 -4 -125 -8 -287 -8 -163
-1 -296 1 -296 2 0 4 134 93 140 92 3 0 14 7 25 17 38 31 140 95 154 96 7 1
68 -42 135 -95z"/>
</g>
</svg>
