<?xml version="1.0" encoding="UTF-8"?>
<svg width="55px" height="39px" viewBox="0 0 55 39" version="1.1" xmlns="http://www.w3.org/2000/svg" xmlns:xlink="http://www.w3.org/1999/xlink">
    <!-- Generator: sketchtool 50.2 (55047) - http://www.bohemiancoding.com/sketch -->
    <title>BF0C9248-5A76-4095-B913-A7D665BA1E95</title>
    <desc>Created with sketchtool.</desc>
    <defs></defs>
    <g id="Page-1" stroke="none" stroke-width="1" fill="none" fill-rule="evenodd">
        <g id="Main_page" transform="translate(-848.000000, -793.000000)" fill-rule="nonzero">
            <g id="choose" transform="translate(395.000000, 780.000000)">
                <g id="ico_1" transform="translate(453.000000, 13.000000)">
                    <path d="M49.9,13.8 C49.7,13.8 49.6,13.6 49.6,13.5 C49.2,10.3 46.4,7.9 43.2,7.9 C41,7.9 39,9 37.8,10.8 C37.7,10.9 37.6,11 37.5,11 C37.4,11 37.3,11 37.2,10.9 C36.3,10.1 35.1,9.7 34,9.7 C32,9.7 30.1,10.9 29.4,12.8 C29.2,13 29,13.1 28.8,13 C28.2,12.8 27.6,12.7 27,12.7 C24.2,12.7 22,15 22,17.7 C22,20.4 24.3,22.7 27,22.7 L49.2,22.7 C51.7,22.7 53.7,20.7 53.7,18.2 C53.7,16 52.1,14.1 49.9,13.8 Z" id="Shape" fill="#2672F9"></path>
                    <path d="M54.7,18.3 C54.7,15.8 53,13.6 50.6,13 L50.4,13 L50.4,12.8 C49.6,9.4 46.6,7 43.1,7 C40.9,7 38.8,8 37.4,9.6 L37.2,9.8 L37,9.7 C36,9.1 35,8.8 33.8,8.8 C31.7,8.8 29.7,10 28.6,11.8 L28.5,12 L28.3,11.9 C27.8,11.8 27.4,11.7 26.9,11.7 C23.6,11.7 20.9,14.4 20.9,17.7 C20.9,21 23.6,23.7 26.9,23.7 L36.6,23.7 L36.6,26.7 C36.6,27 36.9,27.3 37.2,27.3 C37.5,27.3 37.8,27 37.8,26.7 L37.8,23.7 L49.2,23.7 C52.3,23.7 54.7,21.3 54.7,18.3 Z M27,22.6 C24.3,22.6 22.2,20.4 22.2,17.8 C22.2,15.1 24.4,13 27,13 C27.6,13 28.2,13.1 28.7,13.3 C29,13.4 29.3,13.3 29.4,13 C30.2,11.2 31.9,10 33.8,10 C34.9,10 36,10.4 36.9,11.2 C37,11.3 37.2,11.4 37.4,11.3 C37.6,11.3 37.7,11.2 37.8,11 C39,9.2 40.9,8.2 43,8.2 C46.1,8.2 48.8,10.5 49.2,13.6 C49.2,13.9 49.4,14.1 49.7,14.1 C51.8,14.4 53.4,16.2 53.4,18.3 C53.4,20.7 51.5,22.6 49.1,22.6 L27,22.6 Z M17.4,26.6 L17.4,2.9 C17.4,1.5 16.2,0.3 14.8,0.3 L2.9,0.3 C1.5,0.3 0.3,1.5 0.3,2.9 L0.3,26.6 C0.3,28 1.5,29.2 2.9,29.2 L8.3,29.2 L8.3,34.1 C8.3,34.4 8.6,34.7 8.9,34.7 L12.4,34.7 C12.7,34.7 13,34.4 13,34.1 C13,33.8 12.7,33.5 12.4,33.5 L9.4,33.5 L9.4,29.2 L14.8,29.2 C16.2,29.2 17.4,28 17.4,26.6 Z M1.5,2.9 C1.5,2.1 2.1,1.5 2.9,1.5 L14.8,1.5 C15.6,1.5 16.2,2.1 16.2,2.9 L16.2,5 L1.5,5 L1.5,2.9 Z M1.5,6.2 L16.3,6.2 L16.3,23.3 L1.5,23.3 L1.5,6.2 Z M2.9,28 C2.1,28 1.5,27.4 1.5,26.6 L1.5,24.5 L16.3,24.5 L16.3,26.6 C16.3,27.4 15.7,28 14.9,28 L2.9,28 Z M37.9,34.1 C37.9,34.4 37.6,34.7 37.3,34.7 L33.8,34.7 C33.5,34.7 33.2,34.4 33.2,34.1 C33.2,33.8 33.5,33.5 33.8,33.5 L36.8,33.5 L36.8,30.5 C36.8,30.2 37.1,29.9 37.4,29.9 C37.7,29.9 38,30.2 38,30.5 L38,34.1 L37.9,34.1 Z M18.5,33.5 L15.5,33.5 C15.2,33.5 14.9,33.8 14.9,34.1 C14.9,34.4 15.2,34.7 15.5,34.7 L18.5,34.7 L18.5,34.9 C18.9,37.1 20.8,38.7 23,38.7 C25.2,38.7 27.1,37.1 27.5,34.9 L27.5,34.7 L30.5,34.7 C30.8,34.7 31.1,34.4 31.1,34.1 C31.1,33.8 30.8,33.5 30.5,33.5 L27.5,33.5 L27.5,33.3 C27.1,31.2 25.4,29.6 23.2,29.5 L23.1,29.5 L21.1,28.3 C21,28.2 20.8,28.2 20.7,28.2 C20.5,28.2 20.4,28.3 20.3,28.5 C20.1,28.8 20.2,29.1 20.5,29.3 L21.3,29.7 L20.9,30 C19.7,30.7 18.8,31.9 18.5,33.2 L18.5,33.5 Z M21.3,31.1 L22.2,30.6 L21.5,32 C21.4,32.3 21.5,32.6 21.8,32.8 C22.1,32.9 22.4,32.8 22.6,32.5 L23.5,30.6 L23.7,30.6 C25.3,30.9 26.5,32.3 26.5,34 C26.5,35.9 25,37.4 23.1,37.4 C21.2,37.4 19.7,35.9 19.7,34 C19.6,32.9 20.3,31.8 21.3,31.1 Z" id="Shape" fill="#45486A"></path>
                </g>
            </g>
        </g>
    </g>
</svg>