<?xml version="1.0" encoding="UTF-8"?>
<svg width="52px" height="39px" viewBox="0 0 52 39" version="1.1" xmlns="http://www.w3.org/2000/svg" xmlns:xlink="http://www.w3.org/1999/xlink">
    <!-- Generator: sketchtool 50.2 (55047) - http://www.bohemiancoding.com/sketch -->
    <title>6767C370-D3FB-4B65-907A-EEDBBE0049F1</title>
    <desc>Created with sketchtool.</desc>
    <defs></defs>
    <g id="Page-1" stroke="none" stroke-width="1" fill="none" fill-rule="evenodd">
        <g id="Main_page" transform="translate(-1092.000000, -793.000000)" fill-rule="nonzero">
            <g id="choose" transform="translate(395.000000, 780.000000)">
                <g id="ico_2" transform="translate(697.000000, 13.000000)">
                    <polygon id="Shape" fill="#2672F9" points="3.8 21 7.7 18.2 12.6 26.4 17.5 17.8 21.6 21.5 23.9 25.9 24 38 1 38 0.9 28.2 1.6 24.6"></polygon>
                    <path d="M51.6,27.6 L51.6,0.8 C51.6,0.6 51.4,0.4 51.2,0.4 L12.5,0.4 C12.3,0.4 12.1,0.6 12.1,0.8 L12.1,5.4 L11.7,5.4 C8,5.8 5,9.1 5,12.8 C5,14.5 5.6,16.2 6.7,17.5 L7,17.9 L6.6,18.1 C2.8,20.2 0.4,24.3 0.4,28.7 L0.4,38.1 C0.4,38.3 0.6,38.5 0.8,38.5 L24,38.5 C24.2,38.5 24.4,38.3 24.4,38.1 L24.4,28.7 C24.4,28.6 24.4,28.5 24.4,28.4 L24.4,28 L28.7,28 L28.7,38.2 C28.7,38.4 28.9,38.6 29.1,38.6 L34.2,38.6 C34.4,38.6 34.6,38.4 34.6,38.2 L34.6,28 L51,28 C51.4,28 51.6,27.8 51.6,27.6 Z M5.9,12.8 C5.9,9.4 8.5,6.5 11.9,6.3 C12.1,6.3 12.2,6.3 12.4,6.3 C14.1,6.3 15.6,6.9 16.8,8 C18.3,9.3 19,11 19,12.8 C19,14.6 17.9,16.8 16.8,17.7 C15.7,18.6 14.8,19 14,19.2 C13.2,19.4 12.2,19.4 12,19.4 C10.6,19.3 9.3,18.7 8.2,17.8 L8.1,17.7 C6.7,16.4 5.9,14.7 5.9,12.8 Z M9.1,19.6 L10.1,19.9 C10.7,20.1 11.3,20.2 11.9,20.3 C12.7,20.4 13.5,20.3 14.2,20.1 C14.4,20 14.6,20 14.8,19.9 L15.8,19.6 L12.5,25.7 L9.1,19.6 Z M11.3,25.4 L6.6,22.5 L7.9,19.1 L11.3,25.4 Z M17,19.1 L18.3,22.5 L13.6,25.4 L17,19.1 Z M23.6,37.7 L1.3,37.7 L1.3,28.7 C1.3,25.1 3.1,21.7 6,19.6 L7,18.8 L5.6,22.5 C5.5,22.7 5.6,22.9 5.8,23 L12.2,26.9 C12.3,26.9 12.4,27 12.4,27 C12.4,27 12.5,27 12.5,27 L12.6,27 L19,23.1 C19,23.1 19.1,23 19.1,23 C19.2,22.9 19.2,22.7 19.2,22.6 L17.8,19 L18.8,19.7 C19,19.9 19.3,20 19.5,20.2 C19.7,20.4 20,20.6 20.3,20.9 C21.5,22.1 22.4,23.5 22.9,25.1 C23,25.2 23,25.4 23,25.5 C23,25.6 23.1,25.6 23.1,25.7 L23.1,25.8 C23.2,26.2 23.3,26.6 23.4,27.1 L23.5,27.6 C23.5,27.9 23.5,28.1 23.6,28.4 C23.6,28.5 23.6,28.6 23.6,28.7 L23.6,37.7 Z M33.9,37.7 L29.7,37.7 L29.7,28 L33.9,28 L33.9,37.7 Z M50.7,27.1 L24.4,27.1 L24.3,26.6 C24.2,26.2 24.2,25.9 24.1,25.6 C24.1,25.5 24.1,25.5 24.1,25.5 C24.1,25.4 24,25.3 24,25.2 C23.9,25 23.9,24.9 23.8,24.7 C23.2,23 22.2,21.5 21,20.2 C20.7,19.9 20.4,19.7 20.2,19.4 C19.9,19.2 19.7,19 19.4,18.8 L19.2,18.7 C18.9,18.5 18.7,18.4 18.5,18.3 L18,18 L18.5,17.2 C18.6,17.1 18.7,16.9 18.8,16.8 L18.9,16.6 C19,16.4 19.1,16.2 19.2,16 L19.3,15.8 C19.4,15.6 19.4,15.5 19.5,15.3 L19.6,15.1 C19.7,14.9 19.7,14.7 19.7,14.6 L19.8,14.3 C19.8,14.1 19.9,14 19.9,13.8 L19.9,13.6 C19.9,13.4 19.9,13.1 19.9,12.9 C19.9,10.8 19.1,8.9 17.5,7.4 C17.3,7.3 17.2,7.1 17,7 L16.9,6.9 C16.7,6.8 16.6,6.7 16.5,6.6 L16.3,6.5 C16.1,6.4 16,6.3 15.9,6.3 L15.7,6.2 C15.6,6.1 15.4,6 15.3,6 L15.1,5.9 C15,5.8 14.8,5.8 14.7,5.8 L14.5,5.7 C14.3,5.6 14.1,5.6 13.9,5.6 C13.7,5.6 13.5,5.5 13.3,5.5 L12.9,5.5 L12.9,1.3 L50.7,1.3 L50.7,27.1 Z M36.7,15.5 L36.8,15.7 C37.8,17 39.3,17.8 41,17.8 C42.1,17.8 43.1,17.5 44,16.9 L44.3,16.7 L47,19 C47.2,19.2 47.5,19.1 47.6,18.9 C47.8,18.7 47.7,18.4 47.5,18.3 L44.9,16 L45.1,15.7 C45.9,14.7 46.3,13.6 46.3,12.3 C46.3,9.4 43.9,7 41,7 C39.3,7 37.8,7.8 36.8,9.1 L36.7,9.3 L25.2,9.3 C25,9.3 24.8,9.5 24.8,9.7 L24.8,15 C24.8,15.2 25,15.4 25.2,15.4 L36.7,15.4 L36.7,15.5 Z M37.3,9.9 C38.1,8.6 39.5,7.9 41,7.9 C43.5,7.9 45.4,9.9 45.4,12.4 C45.4,13.8 44.7,15.1 43.6,16 C42.8,16.6 41.9,16.9 41,16.9 C39.5,16.9 38.1,16.1 37.3,14.9 C37,14.4 36.7,13.8 36.6,13.1 C36.6,12.9 36.6,12.7 36.6,12.5 C36.6,11.5 36.8,10.7 37.3,9.9 Z M25.6,10.3 L25.6,10.1 L26,10.1 L36.1,10.1 L36,10.7 C36,10.7 36,10.8 36,10.8 C35.9,11 35.9,11.1 35.9,11.3 L35.9,11.4 C35.9,11.5 35.9,11.5 35.9,11.5 C35.9,11.8 35.8,12.1 35.8,12.3 C35.8,12.6 35.8,12.8 35.9,13.1 C35.9,13.1 35.9,13.2 35.9,13.2 L36,13.5 L36.3,14.5 L25.6,14.5 L25.6,10.3 Z" id="Shape" fill="#45486A"></path>
                    <path d="M39.2,19.3 L34.7,22 L32,19.4 C31.8,19.2 31.7,19.2 31.4,19.2 C31.2,19.2 31,19.3 30.8,19.5 L27.4,23.1 C27.1,23.4 27.1,24 27.4,24.3 C27.6,24.5 27.8,24.5 28,24.5 C28.2,24.5 28.4,24.4 28.6,24.2 L31.4,21.2 L33.9,23.7 C34.2,24 34.6,24 34.9,23.8 L39.9,20.7 C40.3,20.5 40.4,19.9 40.2,19.5 C40.1,19.2 39.6,19.1 39.2,19.3 Z" id="Shape" fill="#2672F9"></path>
                    <path d="M19.4,28.4 L14.6,28.4 C14.1,28.4 13.8,28.8 13.8,29.2 C13.8,29.7 14.2,30 14.6,30 L19.4,30 C19.9,30 20.2,29.6 20.2,29.2 C20.3,28.7 19.9,28.4 19.4,28.4 Z" id="Shape" fill="#FFFFFF"></path>
                </g>
            </g>
        </g>
    </g>
</svg>