<?xml version="1.0" encoding="UTF-8"?>
<svg width="46px" height="46px" viewBox="0 0 46 46" version="1.1" xmlns="http://www.w3.org/2000/svg" xmlns:xlink="http://www.w3.org/1999/xlink">
    <!-- Generator: sketchtool 50.2 (55047) - http://www.bohemiancoding.com/sketch -->
    <title>B3452AA0-E62F-418C-B8F8-7A4A57E66374</title>
    <desc>Created with sketchtool.</desc>
    <defs></defs>
    <g id="Page-1" stroke="none" stroke-width="1" fill="none" fill-rule="evenodd">
        <g id="Main_page" transform="translate(-849.000000, -958.000000)" fill-rule="nonzero">
            <g id="choose" transform="translate(395.000000, 780.000000)">
                <g id="ico_4" transform="translate(454.000000, 178.000000)">
                    <polygon id="Shape" fill="#256EF1" points="17 26.5 17 13 28.5 13 28.5 26.5"></polygon>
                    <path d="M42.8,16.2 L42.6,16.1 L42.7,15.9 C42.9,15.2 43,14.4 43,13.6 C43,9.6 40.1,6.3 36.6,6.3 C36.2,6.3 35.9,6.3 35.5,6.4 L35.3,6.4 L35.2,6.2 C33.8,2.6 30.2,0.2 26.3,0.2 C22.5,0.2 19.1,2.4 17.6,5.8 L17.5,6.1 L17.2,6 C16.1,5.3 14.9,5 13.7,5 C10.2,5 7.3,7.8 7.3,11.3 C7.3,11.4 7.3,11.5 7.3,11.5 L7.3,11.8 L7,11.8 C3.3,11.8 0.2,15.2 0.2,19.5 C0.2,23.7 3.2,27.2 7,27.2 L22.5,27.2 L22.5,35.5 L22.3,35.6 C21.4,35.9 20.6,36.6 20.4,37.5 L20.4,37.7 L16.5,37.7 L16.5,35.4 C16.5,34.5 15.8,33.8 14.9,33.8 L5.1,33.8 C4.2,33.8 3.5,34.5 3.5,35.4 L3.5,40.8 C3.5,41.7 4.2,42.4 5.1,42.4 L9.5,42.4 L9.5,44.1 L8.2,44.1 C7.9,44.1 7.7,44.3 7.7,44.6 C7.7,44.9 7.9,45.1 8.2,45.1 L11.9,45.1 C12.2,45.1 12.4,44.9 12.4,44.6 C12.4,44.3 12.2,44.1 11.9,44.1 L10.5,44.1 L10.5,42.4 L14.9,42.4 C15.8,42.4 16.5,41.7 16.5,40.8 L16.5,38.6 L20.4,38.6 L20.4,38.8 C20.7,40 21.8,40.8 23.1,40.8 C24.4,40.8 25.5,40 25.8,38.8 L25.8,38.6 L29.5,38.6 L29.5,42.8 C29.5,43.6 30.2,44.3 31.1,44.3 L36.3,44.3 C37.2,44.3 37.9,43.6 37.9,42.8 L37.9,33.2 C37.9,32.4 37.2,31.7 36.3,31.7 L31.1,31.7 C30.2,31.7 29.5,32.4 29.5,33.2 L29.5,37.6 L25.8,37.6 L25.8,37.4 C25.5,36.4 24.8,35.7 23.7,35.4 L23.5,35.4 L23.5,27 L39,27 C42.7,27 45.8,24.3 45.8,21.1 C45.8,19.1 44.6,17.3 42.8,16.2 Z M15.5,40.6 C15.5,40.9 15.2,41.2 14.9,41.2 L5.1,41.2 C4.8,41.2 4.5,40.9 4.5,40.6 L4.5,35.2 C4.5,34.9 4.8,34.6 5.1,34.6 L14.8,34.6 C15.1,34.6 15.4,34.9 15.4,35.2 L15.4,40.6 L15.5,40.6 Z M30.5,33.1 C30.5,32.8 30.8,32.5 31.1,32.5 L36.3,32.5 C36.6,32.5 36.9,32.8 36.9,33.1 L36.9,34.5 L30.6,34.5 L30.6,33.1 L30.5,33.1 Z M30.5,35.4 L36.8,35.4 L36.8,40.3 L30.5,40.3 L30.5,35.4 Z M30.5,41.3 L36.8,41.3 L36.8,42.7 C36.8,43 36.5,43.3 36.2,43.3 L31,43.3 C30.7,43.3 30.4,43 30.4,42.7 L30.4,41.3 L30.5,41.3 Z M24.9,37.9 C24.9,38.9 24.1,39.7 23.1,39.7 C22.1,39.7 21.3,38.9 21.3,37.9 C21.3,37 22.1,36.2 23,36.2 L23.1,36.2 C24.1,36.2 24.9,37 24.9,37.9 Z M28.3,26.1 L17.5,26.1 L17.5,22.5 L28.4,22.5 L28.4,26.1 L28.3,26.1 Z M28.3,21.6 L17.5,21.6 L17.5,18 L28.4,18 L28.4,21.6 L28.3,21.6 Z M28.3,17 L17.5,17 L17.5,13.4 L28.4,13.4 L28.4,17 L28.3,17 Z M39,26.1 L29.3,26.1 L29.3,22.8 C29.3,22.6 29.2,22.4 29.1,22.2 L29,22 L29.1,21.9 C29.2,21.7 29.3,21.5 29.3,21.3 L29.3,18.2 C29.3,18 29.2,17.8 29.1,17.6 L29,17.5 L29.1,17.4 C29.2,17.2 29.3,17 29.3,16.8 L29.3,13.7 C29.3,13.1 28.8,12.5 28.1,12.5 L17.7,12.5 C17,12.5 16.5,13 16.5,13.7 L16.5,16.8 C16.5,17 16.6,17.2 16.7,17.4 L16.8,17.5 L16.7,17.6 C16.6,17.8 16.5,18 16.5,18.2 L16.5,21.3 C16.5,21.5 16.6,21.7 16.7,21.9 L16.8,22 L16.7,22.1 C16.6,22.3 16.5,22.5 16.5,22.7 L16.5,26 L7,26 C3.8,26 1.2,23 1.2,19.3 C1.2,15.6 3.8,12.6 7,12.6 C7.2,12.6 7.5,12.6 7.8,12.7 C8,12.7 8.1,12.7 8.2,12.6 C8.3,12.5 8.4,12.3 8.3,12.2 C8.2,11.9 8.2,11.6 8.2,11.3 C8.2,8.4 10.6,6 13.6,6 C15,6 16.3,6.5 17.3,7.4 C17.4,7.5 17.6,7.6 17.8,7.5 C18,7.5 18.1,7.3 18.1,7.2 C19.2,3.7 22.5,1.3 26.2,1.3 C29.9,1.3 33.3,3.7 34.3,7.3 C34.3,7.4 34.4,7.5 34.5,7.6 C34.6,7.7 34.8,7.7 34.9,7.6 C35.4,7.4 35.9,7.4 36.4,7.4 C39.4,7.4 41.8,10.3 41.8,13.8 C41.8,14.7 41.6,15.6 41.3,16.4 C41.2,16.6 41.3,16.9 41.5,17 C43.4,17.9 44.5,19.5 44.5,21.4 C44.8,23.8 42.2,26.1 39,26.1 Z" id="Shape" fill="#45486A"></path>
                </g>
            </g>
        </g>
    </g>
</svg>