<?xml version="1.0" encoding="UTF-8"?>
<svg width="65px" height="40px" viewBox="0 0 65 40" version="1.1" xmlns="http://www.w3.org/2000/svg" xmlns:xlink="http://www.w3.org/1999/xlink">
    <!-- Generator: sketchtool 50.2 (55047) - http://www.bohemiancoding.com/sketch -->
    <title>0B2E5AE8-F47B-4CA7-8BD4-A52185BD6C7B</title>
    <desc>Created with sketchtool.</desc>
    <defs></defs>
    <g id="Page-1" stroke="none" stroke-width="1" fill="none" fill-rule="evenodd">
        <g id="Main_page" transform="translate(-1096.000000, -962.000000)" fill-rule="nonzero">
            <g id="choose" transform="translate(395.000000, 780.000000)">
                <g id="ico_5" transform="translate(701.000000, 182.000000)">
                    <path d="M43.6,3.1 C42.2,3.9 41.3,5.7 41.3,6.3 C41.3,6.9 41.1,9.9 41.3,11.8 C41.5,13.7 44.3,15.4 44.3,15.4 L43.8,20.4 L48.8,15.5 C48.8,15.5 59.3,15.7 60.3,15.5 C61.3,15.3 63.5,13.6 63.6,11.9 C63.7,10.2 63.8,6.8 63.5,5.9 C63.2,5 62,3 60.9,2.8 C59.8,2.6 44.4,1.8 43.6,3.1 Z" id="Shape" fill="#2672F9"></path>
                    <path d="M32.2,9.2 C28.9,9.2 26.2,11.9 26.2,15.1 C26.2,18.3 28.9,21 32.2,21 C35.5,21 38.2,18.3 38.2,15.1 C38.2,11.9 35.5,9.2 32.2,9.2 Z M32.2,19.9 C29.5,19.9 27.3,17.7 27.3,15 C27.3,12.3 29.5,10.1 32.2,10.1 C34.9,10.1 37.1,12.3 37.1,15 C37.1,17.7 34.9,19.9 32.2,19.9 Z M64.5,10.7 L64.5,7.4 C64.5,4.4 62,1.9 59,1.9 L46.1,1.9 C44.9,1.9 43.7,2.3 42.7,3.1 L42.4,3.3 L42.1,3.1 C39.1,1.4 35.7,0.5 32.2,0.5 C27.4,0.5 22.8,2.2 19.2,5.3 L18.8,5.6 L18.5,5.2 C16.5,3.1 13.7,1.8 10.8,1.8 C5.1,1.9 0.5,6.5 0.5,12.1 C0.5,17.7 5.1,22.2 10.8,22.2 C11.2,22.2 11.6,22.2 12,22.1 L12.5,22 L12.6,22.5 C13.3,27.6 16.1,32.3 20.3,35.5 C23.8,38.1 27.9,39.4 32.2,39.4 C33.3,39.4 34.4,39.3 35.4,39.1 C36.1,39 36.8,38.8 37.6,38.6 C39,38.2 40.3,37.7 41.4,37.1 C42.3,36.6 43.3,36 44.1,35.4 C49.1,31.7 52,26 52,19.8 C52,18.7 51.9,17.6 51.7,16.5 L51.6,15.9 L59,15.9 C62,16.1 64.5,13.7 64.5,10.7 Z M10.8,21.2 C5.7,21.2 1.6,17.1 1.6,12.1 C1.6,7.1 5.7,3 10.8,3 C13.7,3 16.5,4.4 18.3,6.8 C19.4,8.4 20,10.2 20,12.1 C20,13.9 19.5,15.6 18.5,17.1 C18.4,17.2 18.4,17.4 18.4,17.5 L19.7,23.3 L16,20 C16,20 15.9,19.9 15.8,19.9 C15.7,19.9 15.7,19.9 15.6,19.9 L15.5,19.9 L15.4,19.9 C15.3,19.9 15.3,19.9 15.3,20 L15.2,20 C14.9,20.1 14.7,20.3 14.4,20.4 L14.2,20.5 C14.1,20.5 14,20.6 14,20.6 C13.5,20.8 13.1,20.9 12.7,21 C12.2,21.1 11.5,21.2 10.8,21.2 Z M43,35 C42.9,35.1 42.7,35.2 42.6,35.3 C42.4,35.4 42.2,35.6 42,35.7 C41.8,35.8 41.5,36 41.3,36.1 L41.2,36.1 C41,36.2 40.9,36.3 40.7,36.4 C40.5,36.5 40.3,36.6 40.1,36.7 L39.8,36.8 C39.7,36.9 39.5,36.9 39.4,37 C39.2,37.1 39,37.2 38.7,37.2 L38.4,37.3 C38.2,37.4 38.1,37.4 37.9,37.5 C37.7,37.6 37.4,37.6 37.2,37.7 L37,37.8 C36.9,37.8 36.7,37.9 36.6,37.9 C36.3,38 36.1,38 35.8,38.1 L35.5,38.2 C35.4,38.2 35.3,38.2 35.1,38.3 C34.8,38.3 34.4,38.4 34.1,38.4 L33.9,38.4 C33.8,38.4 33.7,38.4 33.6,38.4 C33.1,38.4 32.6,38.5 32.1,38.5 C31.6,38.5 31.1,38.5 30.6,38.4 C30.5,38.4 30.4,38.4 30.3,38.4 L30.1,38.4 C29.7,38.4 29.4,38.3 29.1,38.3 C29,38.3 28.8,38.3 28.7,38.2 L28.4,38.1 C28.2,38.1 27.9,38 27.7,37.9 C27.6,37.9 27.4,37.8 27.3,37.8 L27,37.7 C26.8,37.6 26.5,37.6 26.3,37.5 C26.2,37.5 26,37.4 25.9,37.3 L25.6,37.2 C25.4,37.1 25.2,37 25,37 C24.8,36.9 24.7,36.9 24.5,36.8 L24.3,36.7 C24.1,36.6 23.9,36.5 23.7,36.4 C23.5,36.3 23.4,36.2 23.2,36.1 L23,36.1 C22.7,36 22.5,35.8 22.3,35.7 C22.1,35.6 22,35.5 21.8,35.4 L21.7,35.3 C21.6,35.2 21.4,35.1 21.3,35 L21.1,34.8 L21.1,34.5 C21.2,28.7 26,24 31.9,24 L32.4,24 C38.3,24 43.1,28.7 43.2,34.5 L43.2,34.8 L43,35 Z M45,33.4 L44.3,34 L44.2,33.1 C43.4,27.4 38.3,23 32.4,23 L31.9,23 C26,23 21,27.3 20.1,33.1 L20,34 L19.3,33.3 C16.1,30.4 14.1,26.4 13.6,22.2 L13.5,21.8 L15.5,21 L20.2,25.1 C20.2,25.1 20.6,25.3 20.8,25.2 C21,25.1 21.1,24.9 21.1,24.6 L19.5,17.4 L19.6,17.2 C20.6,15.6 21.1,13.5 21.1,12 C21.1,10.5 20.8,9.5 20.4,8.3 C20,7.1 19.4,6.4 19.4,6.4 L19.7,6.1 C23.1,3.1 27.5,1.4 32.1,1.4 C35.2,1.4 38.4,2.2 41.1,3.7 L41.6,4 C41.6,4 40.5,5.5 40.5,7.3 C40.5,9.1 40.5,10.6 40.5,10.6 C40.5,12.7 41.7,14.5 43.5,15.5 L43.8,15.7 L43.2,20.4 C43.2,20.6 43.3,20.8 43.5,20.9 C43.7,21 44.1,20.8 44.1,20.8 L48.9,16.1 L50.4,16.1 C50.4,16.1 50.8,18.8 50.8,20 C50.9,25.1 48.8,29.9 45,33.4 Z M48.8,15.1 C48.7,15.1 48.5,15.2 48.4,15.3 L44.5,19 L45,15.5 C45,15.2 44.9,15 44.6,14.9 C42.8,14.3 41.6,12.6 41.6,10.7 L41.6,7.4 C41.6,6.3 42,5.2 42.9,4.4 C43.7,3.5 44.9,3.1 46.1,3.1 L59,3.1 C61.5,3.1 63.4,5.1 63.4,7.5 L63.4,10.8 C63.4,13.2 61.4,15.2 59,15.2 L48.8,15.2 L48.8,15.1 Z" id="Shape" fill="#45486A"></path>
                    <path d="M58.4,5.6 L45.9,5.6 C45.5,5.6 45.3,5.9 45.3,6.2 C45.3,6.5 45.6,6.8 45.9,6.8 L58.5,6.8 C58.9,6.8 59.1,6.5 59.1,6.2 C59.1,5.9 58.8,5.6 58.4,5.6 Z" id="Shape" fill="#FFFFFF"></path>
                </g>
            </g>
        </g>
    </g>
</svg>