<?xml version="1.0" encoding="UTF-8"?>
<svg width="44px" height="39px" viewBox="0 0 44 39" version="1.1" xmlns="http://www.w3.org/2000/svg" xmlns:xlink="http://www.w3.org/1999/xlink">
    <!-- Generator: sketchtool 50.2 (55047) - http://www.bohemiancoding.com/sketch -->
    <title>07EE619B-26F0-43E1-A066-8386C9981E4C</title>
    <desc>Created with sketchtool.</desc>
    <defs></defs>
    <g id="Page-1" stroke="none" stroke-width="1" fill="none" fill-rule="evenodd">
        <g id="Main_page" transform="translate(-1333.000000, -793.000000)" fill-rule="nonzero">
            <g id="choose" transform="translate(395.000000, 780.000000)">
                <g id="ico_3" transform="translate(938.000000, 13.000000)">
                    <circle id="Oval" fill="#2672F9" cx="10.5" cy="28.5" r="9.5"></circle>
                    <path d="M11.1,26.6 L10.9,26.5 L10.9,23.8 C10.9,23.5 10.7,23.3 10.4,23.3 C10.1,23.3 10,23.7 10,23.9 L10,26.6 L9.8,26.7 C9,27 8.4,27.7 8.4,28.6 C8.4,29.7 9.3,30.6 10.4,30.6 C11.5,30.6 12.4,29.7 12.4,28.6 C12.4,27.7 11.9,26.9 11.1,26.6 Z M10.4,29.6 C9.8,29.6 9.3,29.1 9.3,28.5 C9.3,27.9 9.8,27.4 10.4,27.4 C11,27.4 11.5,27.9 11.5,28.5 C11.5,29.1 11,29.6 10.4,29.6 Z" id="Shape" fill="#FFFFFF"></path>
                    <path d="M40.8,0.3 L5.7,0.3 C4.9,0.3 4.2,0.6 3.6,1.2 C3.4,1.4 3.2,1.6 3.1,1.8 C2.9,2.3 2.8,2.7 2.8,3.2 L2.8,21.9 L2.7,22 C1.2,23.8 0.3,26.2 0.3,28.6 C0.3,34.2 4.8,38.8 10.4,38.8 C13.7,38.8 16.9,37.2 18.8,34.4 L18.9,34.3 L43.3,34.3 C43.5,34.3 43.7,34.1 43.7,33.9 L43.7,3.2 C43.7,1.6 42.4,0.3 40.8,0.3 Z M18.3,33.5 C16.6,36.2 13.6,37.8 10.4,37.8 C5.3,37.8 1.1,33.6 1.1,28.5 C1.1,26.2 1.9,24 3.5,22.3 C4.8,20.8 6.5,19.8 8.4,19.4 C9.7,19.1 11.1,19.1 12.5,19.4 C16.7,20.3 19.8,24.2 19.8,28.5 C19.8,28.7 19.8,28.9 19.8,29.2 C19.6,30.7 19.1,32.2 18.3,33.5 Z M7,16.1 C6.4,16.1 6,15.6 6,15.1 C6,14.8 6.1,14.6 6.3,14.4 C6.4,14.1 6.7,14 7,14 L14,14 C14.6,14 15,14.5 15,15 C15,15.3 14.9,15.5 14.7,15.7 C14.5,15.9 14.2,16 14,16 L7,16 L7,16.1 Z M12.1,16.9 L12.1,18.5 L11.4,18.4 C11,18.4 10.7,18.3 10.4,18.3 C10,18.3 9.7,18.3 9.4,18.4 L8.7,18.5 L8.6,18.2 L8.6,16.9 L12.1,16.9 Z M42.9,33.3 L19.4,33.3 C19.4,33.3 19.9,32.4 20.2,31.3 C20.5,30.2 20.6,30 20.6,28.5 C20.6,27 20,24.7 18.9,23 L18.8,22.8 L20.4,21.4 L21.3,22.4 C21.5,22.6 21.7,22.6 21.9,22.4 C22.1,22.2 22.1,22 21.9,21.8 L19.6,19.4 C19.5,19.3 19.4,19.3 19.3,19.3 C19.2,19.3 19.1,19.3 19,19.4 C18.8,19.6 18.8,19.8 19,20 L19.8,20.8 L18.3,22.1 L18.1,21.9 C16.8,20.4 15.1,19.3 13.2,18.7 L13,18.7 L13,16.9 L14,16.9 C14.5,16.9 15,16.7 15.3,16.4 C15.6,16.1 15.8,15.6 15.8,15.1 C15.8,14.1 15,13.2 13.9,13.2 L7,13.2 C6.5,13.2 6,13.4 5.7,13.7 C5.3,14.1 5.2,14.5 5.2,15 C5.2,16 6,16.9 7.1,16.9 L8.1,16.9 L8.1,18.7 L7.5,18.9 C7.5,18.9 6.4,19.3 5.5,19.8 C4.6,20.3 3.6,21 3.6,21 L3.6,8.5 L42.9,8.5 L42.9,33.3 Z M42.9,7.7 L3.6,7.7 L3.6,3.2 C3.6,2.8 3.7,2.5 3.9,2.2 C3.9,2 4.1,1.9 4.2,1.7 C4.6,1.3 5.1,1.1 5.7,1.1 L40.8,1.1 C42,1.1 42.9,2 42.9,3.2 L42.9,7.7 Z M7.8,4.5 C7.8,4.9 7.5,5.2 7.1,5.2 C6.7,5.2 6.4,4.9 6.4,4.5 C6.4,4.1 6.7,3.8 7.1,3.8 C7.5,3.8 7.8,4.1 7.8,4.5 Z M11,4.5 C11,4.9 10.7,5.2 10.3,5.2 C9.9,5.2 9.6,4.9 9.6,4.5 C9.6,4.1 9.9,3.8 10.3,3.8 C10.7,3.8 11,4.1 11,4.5 Z M14.3,4.5 C14.3,4.9 14,5.2 13.6,5.2 C13.2,5.2 12.9,4.9 12.9,4.5 C12.9,4.1 13.2,3.8 13.6,3.8 C14,3.8 14.3,4.1 14.3,4.5 Z M38,12.8 L27.1,12.8 C26.9,12.8 26.7,13 26.7,13.2 L26.7,17.2 C26.7,17.4 26.9,17.6 27.1,17.6 L38,17.6 C38.2,17.6 38.4,17.4 38.4,17.2 L38.4,13.2 C38.4,13 38.2,12.8 38,12.8 Z M37.6,16.8 L27.6,16.8 L27.6,13.6 L37.6,13.6 L37.6,16.8 Z M38.4,20 C38.4,20.2 38.2,20.4 38,20.4 L27.1,20.4 C26.9,20.4 26.7,20.2 26.7,20 C26.7,19.8 26.9,19.6 27.1,19.6 L38,19.6 C38.2,19.6 38.4,19.8 38.4,20 Z M38.4,22.7 C38.4,22.9 38.2,23.1 38,23.1 L27.1,23.1 C26.9,23.1 26.7,22.9 26.7,22.7 C26.7,22.5 26.9,22.3 27.1,22.3 L38,22.3 C38.2,22.3 38.4,22.5 38.4,22.7 Z M38.4,25.5 C38.4,25.7 38.2,25.9 38,25.9 L27.1,25.9 C26.9,25.9 26.7,25.7 26.7,25.5 C26.7,25.3 26.9,25.1 27.1,25.1 L38,25.1 C38.2,25.1 38.4,25.3 38.4,25.5 Z M38.4,28.2 C38.4,28.4 38.2,28.6 38,28.6 L27.1,28.6 C26.9,28.6 26.7,28.4 26.7,28.2 C26.7,28 26.9,27.8 27.1,27.8 L38,27.8 C38.2,27.8 38.4,28 38.4,28.2 Z" id="Shape" fill="#45486A"></path>
                </g>
            </g>
        </g>
    </g>
</svg>