<?xml version="1.0" encoding="UTF-8"?>
<svg width="14px" height="11px" viewBox="0 0 14 11" version="1.1" xmlns="http://www.w3.org/2000/svg" xmlns:xlink="http://www.w3.org/1999/xlink">
    <!-- Generator: sketchtool 50.2 (55047) - http://www.bohemiancoding.com/sketch -->
    <title>E075C61A-191B-48AD-923A-EC89EE308A46</title>
    <desc>Created with sketchtool.</desc>
    <defs></defs>
    <g id="Page-1" stroke="none" stroke-width="1" fill="none" fill-rule="evenodd">
        <g id="Main_page" transform="translate(-644.000000, -1640.000000)" fill="#2672F9">
            <g id="service" transform="translate(393.000000, 1251.000000)">
                <g id="card" transform="translate(223.000000, 176.000000)">
                    <path d="M41.6696429,214.732143 C41.8363104,214.89881 41.9196429,215.101189 41.9196429,215.339286 C41.9196429,215.577382 41.8363104,215.779761 41.6696429,215.946429 L33.9910714,223.625 C33.8244039,223.791667 33.622025,223.875 33.3839286,223.875 C33.1458321,223.875 32.9434532,223.791667 32.7767857,223.625 L28.3303571,219.178571 C28.1636896,219.011904 28.0803571,218.809525 28.0803571,218.571429 C28.0803571,218.333332 28.1636896,218.130953 28.3303571,217.964286 L29.5446429,216.75 C29.7113104,216.583333 29.9136893,216.5 30.1517857,216.5 C30.3898821,216.5 30.5922611,216.583333 30.7589286,216.75 L33.3839286,219.383929 L39.2410714,213.517857 C39.4077389,213.35119 39.6101179,213.267857 39.8482143,213.267857 C40.0863107,213.267857 40.2886896,213.35119 40.4553571,213.517857 L41.6696429,214.732143 Z" id="Check"></path>
                </g>
            </g>
        </g>
    </g>
</svg>