<?xml version="1.0" encoding="UTF-8"?>
<svg width="12px" height="12px" viewBox="0 0 12 12" version="1.1" xmlns="http://www.w3.org/2000/svg" xmlns:xlink="http://www.w3.org/1999/xlink">
    <!-- Generator: sketchtool 50.2 (55047) - http://www.bohemiancoding.com/sketch -->
    <title>F8789297-C95B-490D-9682-48AEFA360046</title>
    <desc>Created with sketchtool.</desc>
    <defs></defs>
    <g id="Page-1" stroke="none" stroke-width="1" fill="none" fill-rule="evenodd">
        <g id="Main_page" transform="translate(-686.000000, -3066.000000)" fill="#828282">
            <g id="news" transform="translate(-189.000000, 2820.000000)">
                <g id="card" transform="translate(873.000000, 30.000000)">
                    <path d="M9,219.25 L9,222.75 C9,222.822917 8.97656273,222.882812 8.9296875,222.929688 C8.88281227,222.976563 8.82291703,223 8.75,223 L6.25,223 C6.17708297,223 6.11718773,222.976563 6.0703125,222.929688 C6.02343727,222.882812 6,222.822917 6,222.75 L6,222.25 C6,222.177083 6.02343727,222.117188 6.0703125,222.070312 C6.11718773,222.023437 6.17708297,222 6.25,222 L8,222 L8,219.25 C8,219.177083 8.02343727,219.117188 8.0703125,219.070312 C8.11718773,219.023437 8.17708297,219 8.25,219 L8.75,219 C8.82291703,219 8.88281227,219.023437 8.9296875,219.070312 C8.97656273,219.117188 9,219.177083 9,219.25 Z M12.25,222 C12.25,221.229163 12.0598977,220.518232 11.6796875,219.867188 C11.2994773,219.216143 10.7838574,218.700523 10.1328125,218.320312 C9.48176758,217.940102 8.77083719,217.75 8,217.75 C7.22916281,217.75 6.51823242,217.940102 5.8671875,218.320312 C5.21614258,218.700523 4.70052273,219.216143 4.3203125,219.867188 C3.94010227,220.518232 3.75,221.229163 3.75,222 C3.75,222.770837 3.94010227,223.481768 4.3203125,224.132812 C4.70052273,224.783857 5.21614258,225.299477 5.8671875,225.679688 C6.51823242,226.059898 7.22916281,226.25 8,226.25 C8.77083719,226.25 9.48176758,226.059898 10.1328125,225.679688 C10.7838574,225.299477 11.2994773,224.783857 11.6796875,224.132812 C12.0598977,223.481768 12.25,222.770837 12.25,222 Z M14,222 C14,223.088547 13.7317735,224.092443 13.1953125,225.011719 C12.6588515,225.930994 11.9309942,226.658851 11.0117188,227.195312 C10.0924433,227.731774 9.08854711,228 8,228 C6.91145289,228 5.90755668,227.731774 4.98828125,227.195312 C4.06900582,226.658851 3.34114852,225.930994 2.8046875,225.011719 C2.26822648,224.092443 2,223.088547 2,222 C2,220.911453 2.26822648,219.907557 2.8046875,218.988281 C3.34114852,218.069006 4.06900582,217.341149 4.98828125,216.804688 C5.90755668,216.268226 6.91145289,216 8,216 C9.08854711,216 10.0924433,216.268226 11.0117188,216.804688 C11.9309942,217.341149 12.6588515,218.069006 13.1953125,218.988281 C13.7317735,219.907557 14,220.911453 14,222 Z" id="Ñlock"></path>
                </g>
            </g>
        </g>
    </g>
</svg>