<?xml version="1.0" encoding="UTF-8"?>
<svg width="14px" height="11px" viewBox="0 0 14 11" version="1.1" xmlns="http://www.w3.org/2000/svg" xmlns:xlink="http://www.w3.org/1999/xlink">
    <!-- Generator: sketchtool 50.2 (55047) - http://www.bohemiancoding.com/sketch -->
    <title>A5113DEC-44EC-48A6-B7D3-D8F9570C4FD3</title>
    <desc>Created with sketchtool.</desc>
    <defs></defs>
    <g id="Page-1" stroke="none" stroke-width="1" fill="none" fill-rule="evenodd">
        <g id="Main_page" transform="translate(-1383.000000, -45.000000)" fill="#FFFFFF">
            <g id="header">
                <g id="menu">
                    <g id="bnt" transform="translate(1363.000000, 27.000000)">
                        <path d="M33,27.75 L33,21.75 C32.8333325,21.9375009 32.6536468,22.1093742 32.4609375,22.265625 C31.0650972,23.338547 29.9557333,24.2187466 29.1328125,24.90625 C28.8671862,25.1302095 28.6510425,25.3046869 28.484375,25.4296875 C28.3177075,25.5546881 28.0924493,25.6809889 27.8085938,25.8085938 C27.5247382,25.9361986 27.2578138,26 27.0078125,26 L26.9921875,26 C26.7421862,26 26.4752618,25.9361986 26.1914062,25.8085938 C25.9075507,25.6809889 25.6822925,25.5546881 25.515625,25.4296875 C25.3489575,25.3046869 25.1328138,25.1302095 24.8671875,24.90625 C24.0442667,24.2187466 22.9349028,23.338547 21.5390625,22.265625 C21.3463532,22.1093742 21.1666675,21.9375009 21,21.75 L21,27.75 C21,27.8177087 21.0247393,27.8763018 21.0742188,27.9257812 C21.1236982,27.9752607 21.1822913,28 21.25,28 L32.75,28 C32.8177087,28 32.8763018,27.9752607 32.9257812,27.9257812 C32.9752607,27.8763018 33,27.8177087 33,27.75 Z M33,19.5390625 L33,19.3476562 C33,19.3242186 32.9986979,19.2903648 32.9960938,19.2460938 C32.9934896,19.2018227 32.9856771,19.1692709 32.9726562,19.1484375 C32.9596354,19.1276041 32.9453126,19.1041668 32.9296875,19.078125 C32.9140624,19.0520832 32.8906252,19.0325521 32.859375,19.0195312 C32.8281248,19.0065104 32.7916669,19 32.75,19 L21.25,19 C21.1822913,19 21.1236982,19.0247393 21.0742188,19.0742188 C21.0247393,19.1236982 21,19.1822913 21,19.25 C21,20.1250044 21.3828087,20.8645803 22.1484375,21.46875 C23.1536509,22.2604206 24.1979113,23.0859332 25.28125,23.9453125 C25.3125002,23.9713543 25.4036451,24.0481764 25.5546875,24.1757812 C25.7057299,24.3033861 25.8255204,24.4010413 25.9140625,24.46875 C26.0026046,24.5364587 26.1184889,24.6184891 26.2617188,24.7148438 C26.4049486,24.8111984 26.5364577,24.8828123 26.65625,24.9296875 C26.7760423,24.9765627 26.8880203,25 26.9921875,25 L27.0078125,25 C27.1119797,25 27.2239577,24.9765627 27.34375,24.9296875 C27.4635423,24.8828123 27.5950514,24.8111984 27.7382812,24.7148438 C27.8815111,24.6184891 27.9973954,24.5364587 28.0859375,24.46875 C28.1744796,24.4010413 28.2942701,24.3033861 28.4453125,24.1757812 C28.5963549,24.0481764 28.6874998,23.9713543 28.71875,23.9453125 C29.8020887,23.0859332 30.8463491,22.2604206 31.8515625,21.46875 C32.1328139,21.2447905 32.39453,20.9440123 32.6367188,20.5664062 C32.8789075,20.1888002 33,19.8463557 33,19.5390625 Z M34,19.25 L34,27.75 C34,28.0937517 33.8776054,28.3880196 33.6328125,28.6328125 C33.3880196,28.8776054 33.0937517,29 32.75,29 L21.25,29 C20.9062483,29 20.6119804,28.8776054 20.3671875,28.6328125 C20.1223946,28.3880196 20,28.0937517 20,27.75 L20,19.25 C20,18.9062483 20.1223946,18.6119804 20.3671875,18.3671875 C20.6119804,18.1223946 20.9062483,18 21.25,18 L32.75,18 C33.0937517,18 33.3880196,18.1223946 33.6328125,18.3671875 C33.8776054,18.6119804 34,18.9062483 34,19.25 Z" id="email"></path>
                    </g>
                </g>
            </g>
        </g>
    </g>
</svg>