<?xml version="1.0" encoding="UTF-8"?>
<svg width="12px" height="10px" viewBox="0 0 12 10" version="1.1" xmlns="http://www.w3.org/2000/svg" xmlns:xlink="http://www.w3.org/1999/xlink">
    <!-- Generator: sketchtool 51 (57462) - http://www.bohemiancoding.com/sketch -->
    <title>386FBBFE-DAD0-4AC4-B538-6CB49F0B07C3</title>
    <desc>Created with sketchtool.</desc>
    <defs></defs>
    <g id="Page-1" stroke="none" stroke-width="1" fill="none" fill-rule="evenodd">
        <g id="Contact-form" transform="translate(-803.000000, -786.000000)">
            <rect fill="#FFFFFF" x="0" y="0" width="1920" height="1717"></rect>
            <g id="input" transform="translate(781.000000, 769.000000)" fill="#2672F9">
                <path d="M32.8173077,19.4230769 L32.8173077,18.2115385 L28,21.2259615 L23.1826923,18.2115385 L23.1826923,19.4230769 L28,22.4086538 L32.8173077,19.4230769 Z M32.8173077,17 C33.1442324,17 33.4230758,17.1201911 33.6538462,17.3605769 C33.8846165,17.6009627 34,17.8846138 34,18.2115385 L34,25.4230769 C34,25.7500016 33.8846165,26.0336526 33.6538462,26.2740385 C33.4230758,26.5144243 33.1442324,26.6346154 32.8173077,26.6346154 L23.1826923,26.6346154 C22.8557676,26.6346154 22.5769242,26.5144243 22.3461538,26.2740385 C22.1153835,26.0336526 22,25.7500016 22,25.4230769 L22,18.2115385 C22,17.8846138 22.1153835,17.6009627 22.3461538,17.3605769 C22.5769242,17.1201911 22.8557676,17 23.1826923,17 L32.8173077,17 Z" id="email-3"></path>
            </g>
        </g>
    </g>
</svg>