<?xml version="1.0" encoding="UTF-8"?>
<svg width="22px" height="18px" viewBox="0 0 22 18" version="1.1" xmlns="http://www.w3.org/2000/svg" xmlns:xlink="http://www.w3.org/1999/xlink">
    <!-- Generator: Sketch 50.2 (55047) - http://www.bohemiancoding.com/sketch -->
    <title>email</title>
    <desc>Created with Sketch.</desc>
    <defs></defs>
    <g id="Page-1" stroke="none" stroke-width="1" fill="none" fill-rule="evenodd">
        <g id="iPhone-SE-(ES)-320" transform="translate(-283.000000, -29.000000)" fill="#2672F9">
            <g id="menu">
                <path d="M303.428571,44.3214286 L303.428571,34.8928571 C303.166665,35.1875015 302.884302,35.4575881 302.581473,35.703125 C300.38801,37.3891453 298.644724,38.772316 297.351562,39.8526786 C296.93415,40.2046149 296.594495,40.4787937 296.332589,40.6752232 C296.070683,40.8716528 295.716706,41.0701255 295.270647,41.2706473 C294.824589,41.4711692 294.405136,41.5714286 294.012277,41.5714286 L293.987723,41.5714286 C293.594864,41.5714286 293.175411,41.4711692 292.729353,41.2706473 C292.283294,41.0701255 291.929317,40.8716528 291.667411,40.6752232 C291.405505,40.4787937 291.06585,40.2046149 290.648438,39.8526786 C289.355276,38.772316 287.61199,37.3891453 285.418527,35.703125 C285.115698,35.4575881 284.833335,35.1875015 284.571429,34.8928571 L284.571429,44.3214286 C284.571429,44.4278279 284.610305,44.5199029 284.688058,44.5976562 C284.765811,44.6754096 284.857886,44.7142857 284.964286,44.7142857 L303.035714,44.7142857 C303.142114,44.7142857 303.234189,44.6754096 303.311942,44.5976562 C303.389695,44.5199029 303.428571,44.4278279 303.428571,44.3214286 Z M303.428571,31.4185268 L303.428571,31.1177455 C303.428571,31.080915 303.426525,31.0277161 303.422433,30.9581473 C303.418341,30.8885785 303.406064,30.8374258 303.385603,30.8046875 C303.365141,30.7719492 303.342634,30.7351193 303.31808,30.6941964 C303.293527,30.6532736 303.256697,30.6225819 303.207589,30.6021205 C303.158482,30.5816591 303.101191,30.5714286 303.035714,30.5714286 L284.964286,30.5714286 C284.857886,30.5714286 284.765811,30.6103047 284.688058,30.688058 C284.610305,30.7658114 284.571429,30.8578864 284.571429,30.9642857 C284.571429,32.3392926 285.172985,33.5014833 286.376116,34.4508929 C287.955737,35.6949467 289.596718,36.9921807 291.299107,38.3426339 C291.348215,38.3835568 291.491442,38.5042773 291.728795,38.7047991 C291.966147,38.9053209 292.154389,39.0587792 292.293527,39.1651786 C292.432664,39.2715779 292.614768,39.4004829 292.839844,39.5518973 C293.064919,39.7033118 293.271576,39.8158478 293.459821,39.8895089 C293.648066,39.96317 293.824032,40 293.987723,40 L294.012277,40 C294.175968,40 294.351934,39.96317 294.540179,39.8895089 C294.728424,39.8158478 294.935081,39.7033118 295.160156,39.5518973 C295.385232,39.4004829 295.567336,39.2715779 295.706473,39.1651786 C295.845611,39.0587792 296.033853,38.9053209 296.271205,38.7047991 C296.508558,38.5042773 296.651785,38.3835568 296.700893,38.3426339 C298.403282,36.9921807 300.044263,35.6949467 301.623884,34.4508929 C302.06585,34.0989566 302.477119,33.6263051 302.857701,33.0329241 C303.238283,32.4395432 303.428571,31.9014161 303.428571,31.4185268 Z M305,30.9642857 L305,44.3214286 C305,44.8616098 304.807666,45.3240308 304.422991,45.7087054 C304.038317,46.0933799 303.575896,46.2857143 303.035714,46.2857143 L284.964286,46.2857143 C284.424104,46.2857143 283.961683,46.0933799 283.577009,45.7087054 C283.192334,45.3240308 283,44.8616098 283,44.3214286 L283,30.9642857 C283,30.4241044 283.192334,29.9616835 283.577009,29.5770089 C283.961683,29.1923344 284.424104,29 284.964286,29 L303.035714,29 C303.575896,29 304.038317,29.1923344 304.422991,29.5770089 C304.807666,29.9616835 305,30.4241044 305,30.9642857 Z" id="email"></path>
            </g>
        </g>
    </g>
</svg>