<?xml version="1.0" encoding="UTF-8"?>
<svg width="22px" height="18px" viewBox="0 0 22 18" version="1.1" xmlns="http://www.w3.org/2000/svg" xmlns:xlink="http://www.w3.org/1999/xlink">
    <!-- Generator: sketchtool 50.2 (55047) - http://www.bohemiancoding.com/sketch -->
    <title>865E6908-2B40-4DA1-B903-F2C9406EA47A</title>
    <desc>Created with sketchtool.</desc>
    <defs></defs>
    <g id="Page-1" stroke="none" stroke-width="1" fill="none" fill-rule="evenodd">
        <g id="Main_page" transform="translate(-779.000000, -40.000000)" fill="#2672F9">
            <g id="header">
                <g id="menu">
                    <g transform="translate(774.000000, 38.000000)" id="home">
                        <g transform="translate(0.000000, 2.000000)">
                            <path d="M23.8571429,10.7142857 L23.8571429,17.1428571 C23.8571429,17.3750012 23.7723223,17.575892 23.6026786,17.7455357 C23.4330349,17.9151794 23.232144,18 23,18 L17.8571429,18 L17.8571429,12.8571429 L14.4285714,12.8571429 L14.4285714,18 L9.28571429,18 C9.05357027,18 8.85267942,17.9151794 8.68303571,17.7455357 C8.51339201,17.575892 8.42857143,17.3750012 8.42857143,17.1428571 L8.42857143,10.7142857 C8.42857143,10.7053571 8.43080355,10.6919644 8.43526786,10.6741071 C8.43973217,10.6562499 8.44196429,10.6428572 8.44196429,10.6339286 L16.1428571,4.28571429 L23.84375,10.6339286 C23.8526786,10.6517858 23.8571429,10.6785712 23.8571429,10.7142857 Z M26.84375,9.79017857 L26.0133929,10.78125 C25.9419639,10.8616075 25.8482149,10.9107142 25.7321429,10.9285714 L25.6919643,10.9285714 C25.5758923,10.9285714 25.4821432,10.8973217 25.4107143,10.8348214 L16.1428571,3.10714286 L6.875,10.8348214 C6.76785661,10.9062504 6.66071482,10.9375 6.55357143,10.9285714 C6.43749942,10.9107142 6.34375036,10.8616075 6.27232143,10.78125 L5.44196429,9.79017857 C5.37053536,9.70089241 5.33928567,9.59598275 5.34821429,9.47544643 C5.3571429,9.35491011 5.40624955,9.25892893 5.49553571,9.1875 L15.125,1.16517857 C15.4107157,0.933034554 15.749998,0.816964286 16.1428571,0.816964286 C16.5357162,0.816964286 16.8749986,0.933034554 17.1607143,1.16517857 L20.4285714,3.89732143 L20.4285714,1.28571429 C20.4285714,1.16071366 20.4687496,1.05803612 20.5491071,0.977678571 C20.6294647,0.897321027 20.7321422,0.857142857 20.8571429,0.857142857 L23.4285714,0.857142857 C23.5535721,0.857142857 23.6562496,0.897321027 23.7366071,0.977678571 C23.8169647,1.05803612 23.8571429,1.16071366 23.8571429,1.28571429 L23.8571429,6.75 L26.7901786,9.1875 C26.8794647,9.25892893 26.9285714,9.35491011 26.9375,9.47544643 C26.9464286,9.59598275 26.9151789,9.70089241 26.84375,9.79017857 Z" id="home---FontAwesome"></path>
                        </g>
                    </g>
                </g>
            </g>
        </g>
    </g>
</svg>