<?xml version="1.0" encoding="UTF-8"?>
<svg width="18px" height="19px" viewBox="0 0 18 19" version="1.1" xmlns="http://www.w3.org/2000/svg" xmlns:xlink="http://www.w3.org/1999/xlink">
    <!-- Generator: sketchtool 50.2 (55047) - http://www.bohemiancoding.com/sketch -->
    <title>78B3C030-654B-460B-84FC-5B18CEA01138</title>
    <desc>Created with sketchtool.</desc>
    <defs></defs>
    <g id="Page-1" stroke="none" stroke-width="1" fill="none" fill-rule="evenodd">
        <g id="Main_page" transform="translate(-1017.000000, -3445.000000)" fill="#141D68">
            <g id="contact" transform="translate(0.000000, 3376.000000)">
                <path d="M1020.6,77.376 C1021.336,78.784007 1022.27199,80.0559943 1023.408,81.192 C1024.54401,82.3280057 1025.81599,83.2639963 1027.224,84 L1029.432,81.792 C1029.56,81.6479993 1029.72,81.5520002 1029.912,81.504 C1030.104,81.4559998 1030.288,81.4719996 1030.464,81.552 C1031.52001,81.9200018 1032.70399,82.104 1034.016,82.104 C1034.288,82.104 1034.52,82.199999 1034.712,82.392 C1034.904,82.584001 1035,82.8159986 1035,83.088 L1035,86.616 C1035,86.8880014 1034.904,87.119999 1034.712,87.312 C1034.52,87.504001 1034.288,87.6 1034.016,87.6 C1031.71199,87.6 1029.50401,87.1520045 1027.392,86.256 C1025.35999,85.3919957 1023.56001,84.1760078 1021.992,82.608 C1020.42399,81.0399922 1019.208,79.2400102 1018.344,77.208 C1017.448,75.0959894 1017,72.8880115 1017,70.584 C1017,70.3119986 1017.096,70.080001 1017.288,69.888 C1017.48,69.695999 1017.712,69.6 1017.984,69.6 L1021.512,69.6 C1021.784,69.6 1022.016,69.695999 1022.208,69.888 C1022.4,70.080001 1022.496,70.3119986 1022.496,70.584 C1022.496,71.8960066 1022.68,73.0799947 1023.048,74.136 C1023.096,74.3120009 1023.104,74.495999 1023.072,74.688 C1023.04,74.880001 1022.952,75.0399994 1022.808,75.168 L1020.6,77.376 Z" id="local_phone"></path>
            </g>
        </g>
    </g>
</svg>