<?xml version="1.0" encoding="UTF-8"?>
<svg width="13px" height="13px" viewBox="0 0 13 13" version="1.1" xmlns="http://www.w3.org/2000/svg" xmlns:xlink="http://www.w3.org/1999/xlink">
    <!-- Generator: sketchtool 51 (57462) - http://www.bohemiancoding.com/sketch -->
    <title>C010B390-6204-4816-ADAB-24A7BFA4CF90</title>
    <desc>Created with sketchtool.</desc>
    <defs></defs>
    <g id="Page-1" stroke="none" stroke-width="1" fill="none" fill-rule="evenodd">
        <g id="Contact-form" transform="translate(-802.000000, -866.000000)">
            <rect fill="#FFFFFF" x="0" y="0" width="1920" height="1717"></rect>
            <g id="Group" transform="translate(654.000000, 559.000000)" fill="#2672F9">
                <g id="input" transform="translate(127.000000, 292.000000)">
                    <path d="M23.6,20.616 C24.1315582,21.632894 24.8075515,22.5515515 25.628,23.372 C26.4484485,24.1924485 27.367106,24.8684418 28.384,25.4 L29.9786667,23.8053333 C30.0711116,23.7013328 30.186666,23.6320002 30.3253333,23.5973333 C30.4640007,23.5626665 30.5968883,23.5742219 30.724,23.632 C31.4866705,23.8977791 32.341773,24.0306667 33.2893333,24.0306667 C33.4857788,24.0306667 33.6533326,24.0999993 33.792,24.2386667 C33.9306674,24.377334 34,24.5448879 34,24.7413333 L34,27.2893333 C34,27.4857788 33.9306674,27.6533326 33.792,27.792 C33.6533326,27.9306674 33.4857788,28 33.2893333,28 C31.625325,28 30.0306743,27.6764477 28.5053333,27.0293333 C27.0377704,26.4053302 25.7377834,25.5271168 24.6053333,24.3946667 C23.4728832,23.2622166 22.5946698,21.9622296 21.9706667,20.4946667 C21.3235523,18.9693257 21,17.374675 21,15.7106667 C21,15.5142212 21.0693326,15.3466674 21.208,15.208 C21.3466674,15.0693326 21.5142212,15 21.7106667,15 L24.2586667,15 C24.4551121,15 24.622666,15.0693326 24.7613333,15.208 C24.9000007,15.3466674 24.9693333,15.5142212 24.9693333,15.7106667 C24.9693333,16.658227 25.1022209,17.5133295 25.368,18.276 C25.4026668,18.4031117 25.4084446,18.5359993 25.3853333,18.6746667 C25.3622221,18.813334 25.2986672,18.9288884 25.1946667,19.0213333 L23.6,20.616 Z" id="local_phone"></path>
                </g>
            </g>
        </g>
    </g>
</svg>