<?xml version="1.0" encoding="UTF-8"?>
<svg width="12px" height="13px" viewBox="0 0 12 13" version="1.1" xmlns="http://www.w3.org/2000/svg" xmlns:xlink="http://www.w3.org/1999/xlink">
    <!-- Generator: sketchtool 51 (57462) - http://www.bohemiancoding.com/sketch -->
    <title>093DE597-0BD4-43C3-B22C-402624009F0E</title>
    <desc>Created with sketchtool.</desc>
    <defs></defs>
    <g id="Page-1" stroke="none" stroke-width="1" fill="none" fill-rule="evenodd">
        <g id="Contact-form" transform="translate(-803.000000, -702.000000)">
            <rect fill="#FFFFFF" x="0" y="0" width="1920" height="1717"></rect>
            <g id="input" transform="translate(781.000000, 687.000000)" fill="#2672F9">
                <path d="M28,22.860982 C28.7425187,22.860982 29.5568818,22.9687654 30.4431138,23.1843353 C31.4491068,23.4358336 32.2634699,23.7711596 32.8862275,24.1903234 C33.6287462,24.6813438 34,25.2322365 34,25.843018 L34,27.352 L22,27.352 L22,25.843018 C22,25.2322365 22.3712538,24.6813438 23.1137725,24.1903234 C23.7365301,23.7711596 24.5508932,23.4358336 25.5568862,23.1843353 C26.4431182,22.9687654 27.2574813,22.860982 28,22.860982 Z M28,21.352 C27.4610751,21.352 26.9640741,21.2172708 26.508982,20.9478084 C26.0538899,20.678346 25.6916181,20.3160741 25.4221557,19.860982 C25.1526933,19.4058899 25.0179641,18.9088889 25.0179641,18.3699641 C25.0179641,17.8310392 25.1526933,17.3280502 25.4221557,16.860982 C25.6916181,16.3939138 26.0538899,16.025654 26.508982,15.7561916 C26.9640741,15.4867292 27.4610751,15.352 28,15.352 C28.5389249,15.352 29.0359259,15.4867292 29.491018,15.7561916 C29.9461101,16.025654 30.3083819,16.3939138 30.5778443,16.860982 C30.8473067,17.3280502 30.9820359,17.8310392 30.9820359,18.3699641 C30.9820359,18.9088889 30.8473067,19.4058899 30.5778443,19.860982 C30.3083819,20.3160741 29.9461101,20.678346 29.491018,20.9478084 C29.0359259,21.2172708 28.5389249,21.352 28,21.352 Z" id="person"></path>
            </g>
        </g>
    </g>
</svg>