<?xml version="1.0" encoding="UTF-8"?>
<svg width="14px" height="21px" viewBox="0 0 14 21" version="1.1" xmlns="http://www.w3.org/2000/svg" xmlns:xlink="http://www.w3.org/1999/xlink">
    <!-- Generator: sketchtool 50.2 (55047) - http://www.bohemiancoding.com/sketch -->
    <title>8BEAE870-86C4-45C8-80D3-099CB5ECA4AB</title>
    <desc>Created with sketchtool.</desc>
    <defs></defs>
    <g id="Page-1" stroke="none" stroke-width="1" fill="none" fill-rule="evenodd">
        <g id="Main_page" transform="translate(-654.000000, -3443.000000)" fill="#141D68">
            <g id="contact" transform="translate(0.000000, 3376.000000)">
                <path d="M661,77.072 C661.448002,77.072 661.863998,76.9600011 662.248,76.736 C662.632002,76.5119989 662.935999,76.2120019 663.16,75.836 C663.384001,75.4599981 663.496,75.0480022 663.496,74.6 C663.496,74.1519978 663.384001,73.7360019 663.16,73.352 C662.935999,72.9679981 662.632002,72.6640011 662.248,72.44 C661.863998,72.2159989 661.448002,72.104 661,72.104 C660.551998,72.104 660.140002,72.2159989 659.764,72.44 C659.387998,72.6640011 659.088001,72.9679981 658.864,73.352 C658.639999,73.7360019 658.528,74.1519978 658.528,74.6 C658.528,75.2880034 658.767998,75.8719976 659.248,76.352 C659.728002,76.8320024 660.311997,77.072 661,77.072 Z M661,67.616 C662.280006,67.616 663.455995,67.9279969 664.528,68.552 C665.584005,69.1760031 666.423997,70.0159947 667.048,71.072 C667.672003,72.1440054 667.984,73.3199936 667.984,74.6 C667.984,75.5760049 667.744002,76.6959937 667.264,77.96 C666.847998,79.0320054 666.272004,80.1919938 665.536,81.44 C664.927997,82.432005 664.232004,83.4639946 663.448,84.536 C662.903997,85.2880038 662.328003,86.0239964 661.72,86.744 L661,87.584 L660.28,86.744 C659.671997,86.0239964 659.096003,85.2880038 658.552,84.536 C657.767996,83.4639946 657.072003,82.432005 656.464,81.44 C655.727996,80.1919938 655.152002,79.0320054 654.736,77.96 C654.255998,76.6959937 654.016,75.5760049 654.016,74.6 C654.016,73.3199936 654.327997,72.1440054 654.952,71.072 C655.576003,70.0159947 656.415995,69.1760031 657.472,68.552 C658.544005,67.9279969 659.719994,67.616 661,67.616 Z" id="place-"></path>
            </g>
        </g>
    </g>
</svg>